<svg id="Layer_1" data-name="Layer 1" xmlns="http://www.w3.org/2000/svg" viewBox="0 0 1000 1000"><defs><style>.cls-1{fill:#d1d3d4;fill-rule:evenodd;}</style></defs><path class="cls-1" d="M360.86,786h-2.14l-4.08-7.11H470.43V786h-7.05v35.51l-8.1-8V799.4H446.9a7.74,7.74,0,0,0-4.06.88c-1.31.93-2,2.45-2,4.62a13.52,13.52,0,0,0,3.51,8.72A32.74,32.74,0,0,0,448,817l-2.42,2.35a65.15,65.15,0,0,1-6.31-5.78q-6.3-6.88-6.3-12.77a8.31,8.31,0,0,1,2.61-6.5,9.34,9.34,0,0,1,6.57-2.35h13.15V786H425.55a16.09,16.09,0,0,1,.63,2.08,21.88,21.88,0,0,1,.71,5.13,12.6,12.6,0,0,1-5.12,10.43,23.34,23.34,0,0,1-5.23,2.9,18.65,18.65,0,0,0,1.17,1.64,42.12,42.12,0,0,0,4.25,4.48,63.23,63.23,0,0,0,5,4.32c.52.43,1.2.89,2,1.45l-2.33,2.52c-1.64-1.26-2.92-2.28-3.89-3.08-3.06-2.47-5.49-4.52-7.29-6.2a79.84,79.84,0,0,1-6.49-6.49c-2.64-3-4-5.34-4-7.08a4.14,4.14,0,0,1,1.26-3.14,5.22,5.22,0,0,1,3.77-1.2,8.13,8.13,0,0,1,4,1.43c.46.32,1.12.77,1.95,1.46a12.92,12.92,0,0,0,1.65-1.57,6.71,6.71,0,0,0,1.61-4.29,25.55,25.55,0,0,0-.13-3.26,9,9,0,0,0-.32-1.53h-25v35.51l-8.11-8V786H373.85v35.51l-8.12-8v-8.64H355.55l-.26,3c-.11.7-.27,1.45-.37,2.17a2.28,2.28,0,0,1-2.54,1.8c-1.41,0-3.74-1.6-7-4.83s-4.82-5.58-4.82-7.15a1.89,1.89,0,0,1,.74-1.69,3,3,0,0,1,2-.57h5.33l.74-4.32a35.75,35.75,0,0,1-6.77-1.46c-4.53-1.73-6.77-4.57-6.77-8.54a5.08,5.08,0,0,1,1.9-4.23,7.7,7.7,0,0,1,5-1.53c3.21,0,6.25,1.4,9.08,4.14A12.87,12.87,0,0,1,356,791v6.51h9.71V786Zm303.31,0h-11a13.63,13.63,0,0,1,.64,2.08,20.88,20.88,0,0,1,.71,5.13,12.65,12.65,0,0,1-5.12,10.43,23,23,0,0,1-5.22,2.9,11.92,11.92,0,0,0,1.18,1.64,36.44,36.44,0,0,0,4.23,4.48,61.45,61.45,0,0,0,5,4.32c.56.43,1.23.89,2,1.45l-2.33,2.52c-1.63-1.26-2.92-2.28-3.87-3.08-3.09-2.47-5.5-4.52-7.32-6.2a80.29,80.29,0,0,1-6.46-6.49c-2.65-3-4-5.34-4-7.08a4.07,4.07,0,0,1,1.26-3.14,5.26,5.26,0,0,1,3.79-1.2,8,8,0,0,1,4,1.43c.48.32,1.13.77,2,1.46a13.56,13.56,0,0,0,1.61-1.57,6.67,6.67,0,0,0,1.62-4.29,30,30,0,0,0-.13-3.26,7.14,7.14,0,0,0-.35-1.53H621.48v35.51l-8.11-8V786H594.72v6.85a7,7,0,0,1,1.17-.63,6.36,6.36,0,0,1,2.6-.62c3.07,0,5.68,1.42,7.85,4.21a16.12,16.12,0,0,1,1.16,17.59,14.28,14.28,0,0,1-2.06,2.51l-6.41-7a27.8,27.8,0,0,0,2.89-2.54q2.88-3.11,2.88-5.82a2.45,2.45,0,0,0-.45-1.65,2.72,2.72,0,0,0-2.24-.8c-1.63,0-3.33.81-5.14,2.51a17.35,17.35,0,0,0-2.25,2.52v18.54l-8-8.27V808a15.16,15.16,0,0,1-2.06,1,11.9,11.9,0,0,1-4.44,1.1c-2.63,0-5-1.34-7.06-4a12.82,12.82,0,0,1-3.12-8,7.3,7.3,0,0,1,2.71-6.17,8.73,8.73,0,0,1,5.41-1.7,11.11,11.11,0,0,1,5.86,2,20.88,20.88,0,0,1,2.7,2.06V786H562a18.85,18.85,0,0,1,.66,2.08,22.36,22.36,0,0,1,.7,5.13,12.6,12.6,0,0,1-5.15,10.43,22.58,22.58,0,0,1-5.18,2.9,9.84,9.84,0,0,0,1.16,1.64,42.55,42.55,0,0,0,4.22,4.48,65.09,65.09,0,0,0,5.05,4.32c.53.43,1.2.89,2,1.45l-2.34,2.52c-1.61-1.26-2.92-2.28-3.9-3.08-3.05-2.47-5.48-4.52-7.29-6.2a75.22,75.22,0,0,1-6.45-6.49c-2.66-3-4-5.34-4-7.08a4.11,4.11,0,0,1,1.27-3.14,5.29,5.29,0,0,1,3.79-1.2,8.19,8.19,0,0,1,4,1.43c.46.32,1.1.77,2,1.46a11.57,11.57,0,0,0,1.61-1.57,6.49,6.49,0,0,0,1.65-4.29,26,26,0,0,0-.16-3.26,7.05,7.05,0,0,0-.29-1.53H530.32v35.51l-8.11-8V801.69a5.41,5.41,0,0,1-.47.31,7,7,0,0,1-3.84,1,8.9,8.9,0,0,1-4.72-1.8,17.64,17.64,0,0,1-2.35-1.9c-.32.54-.59,1-.8,1.28a15.12,15.12,0,0,1-2.07,2.48,21.06,21.06,0,0,1-3.32,2.38c-.25.11-.59.29-1,.52.3.55.58,1,.83,1.38.72,1.06,1.59,2.24,2.64,3.54a52.41,52.41,0,0,0,4.09,4.36c.62.55,1.47,1.3,2.53,2.27L511,820q-4.78-5.33-7.12-8.39c-4.81-6.32-7.19-11-7.19-14.06a4.59,4.59,0,0,1,1-3.07,3.15,3.15,0,0,1,2.5-1.16,5.37,5.37,0,0,1,2.61.71,3.81,3.81,0,0,1,1.09.74c.23-.52.44-.9.56-1.28A11.88,11.88,0,0,0,505,790a14.84,14.84,0,0,0-.44-3.24,3.13,3.13,0,0,0-.19-.81h-9.91v-7.11H664.17V786Zm-77.46,13a9.58,9.58,0,0,0-1.76-.81,15.65,15.65,0,0,0-5.3-.9,5.71,5.71,0,0,0-3.55,1.17,4.07,4.07,0,0,0-1.55,3.5,2.16,2.16,0,0,0,.76,1.76,2.4,2.4,0,0,0,1.61.68,11.51,11.51,0,0,0,6.75-2.7,32.12,32.12,0,0,0,3-2.7Zm-64.5-4.46V786H511.12a10.43,10.43,0,0,1,.44,1.7,17,17,0,0,1,.55,3.9A20.49,20.49,0,0,1,512,794a7.6,7.6,0,0,1-.35,1.76c.64.3,1.12.53,1.47.66a11.66,11.66,0,0,0,3.5.72,7.6,7.6,0,0,0,4.33-1.64c.34-.27.77-.6,1.28-1ZM349.7,790.13a8.28,8.28,0,0,0,.09-1.16,11,11,0,0,0-.63-4.06,3.34,3.34,0,0,0-3.25-2.44c-2.16,0-3.21,1-3.21,3s1.16,3.43,3.49,4.14A19.2,19.2,0,0,0,349.7,790.13Z"/><path class="cls-1" d="M492,194.14c-2.85,1-13.67-9.9-7.4-14.47,10-6.4,4.55,10.84,7.4,14.47Zm4.49-14.47c-.93,0-1.85,1.72-1.85,5.43,2.77,2.77,3.63,5.41,3.63,10l2.77-1c0-1.72.94-3.63,1.78-5.41-.84-1.78-.84-5.43-.84-10l-5.49,1Zm9,0c2.71-2.77,4.49-3.76,7.26-2.77l-.78,8.2v4.55c0,2.77-1,4.49-2.78,5.49a8.41,8.41,0,0,1-3.7-7.27v-8.2ZM521,175.91c2.83-.79,4.63,0,4.63,1.92,0,4.56-3.78,8.13-4.63,10-1.79.86,0,4.55-.94,6.27-1.77,1.92-4.49-.86-5.35-7.19-.91-2.71,0-4.56,1.8-6.34a11.37,11.37,0,0,1,4.49-4.7ZM555.53,600.5c5.47-7.26-8.13-16.44-8.13-16.44-3.71-5.42,8.13-11.76-1.85-30.91-9.18-19.17,1.85-47.43,1.85-47.43,10-42.74-3.71-50.14-3.71-50.14-13.61,16.44-17.24,11.89-17.24,11.89s9.92,52.84-1.84,74.71-2.78,31-2.78,31l2.78.93c1.84-1.78,1.84-9.12,1.84-13.67-.84-5.42,1.85-24.58,4.56-22.8s1.86,11.83,1.86,11.83,1.7,12.81,3.5,12.81c2.83.86,1.91,11.83,1.91,11.83s0,14.53,6.35,12.76c0,0,10.09,8.18,8.18,13.66s2.72,6.35,2.72,6.35a4.36,4.36,0,0,0,.91,2.7c.92,0,1.78-.87,1.78-2.7,0-.86-1.78-2.79,1.86-3.57,3.63,0,.92-1.86.92-1.86s-2.78-1.84-4.56-.92c-1.72,1.86-.91,0-.91,0Zm10-148.55c0,1.85-.86,8.25,3.7,8.25s3.64,4.56,3.64,4.56,12.68,14.52,13.61,24.51c0,11,3.63,55.68,0,54.76s3.63,5.41,3.63-.94c.86-6.4,5.47-50.12.86-62.81,0,0,1.91-4.63,2.78,0,0,0,3.68-1,4.49,18.18,1.83,19.15-.81,31.89-1.8,31.89,0,0-5.47,20.08-.86,27.28,3.63,8.25,7.28,5.48,3.63,16.45l2.79,5.49v1.78l-4.57-4.49s-1.85-1.92-1.85,0,4.49,5.41,3.63,5.41c0,0-1.78,2.71-2.77.93,0,0-5.47-8.26-4.49-11.89,0,0,0-3.63-2.77-.86s1.79,16.39,3.7,17.3c1.78,1.86,13.61,3.58,11.76,9s8.18,11.05,8.18,11.89c-.91,0,5.49,5.43-2.77,4.57,0,0-9,0-7.19-10,0,0-.86-4.63-4.62,0l1,9s.86,4.56-5.46-.84c-6.35-4.63-9.12-11-13.62-24.64-5.54-13.69-8.18-16.39-6.35-24.59.81-9.1-12.74-17.3-11-20.93s-5.43-14.61,0-34.62c.92-4.55,0-1.91.92-10,1.78-8.18-.92-26.42.92-31s-5.42-3.56-4.55-10,5.41-5.48,5.41-3.63Zm-9,11.89c.92,2.77,3.64,42.86-1.72,51.92-1,3.63,0,6.4-1,9.17,0,4.5,1,7.21-1.84,11.76-3.7,4.63-4.49,1.86-4.49,0,0-.86,1.78-22.71,2.69-24.56,1.8-.94,4.63-32.85,3.64-33.69-1.84,0,1-15.46,0-13.68,0,.86,1.8-4.56,2.71-.92Zm-51.78,6.4c0,10-.92,10.9-.92,11.84,0,0,.92,0,4.49,2.69,1.78,1.86,1.78,4.5,2.77,6.41,1,5.48-1,12.74,0,12.74,1,.87-1,21.88,0,23.65,0,0,4.55,21,6.41,22.86.86,4.56-.92,10.9.86,10,.92-.93-1.78,20-4.49,24.57-2.78,3.63,0,15.52.91,16.44,0,0,6.29,7.26-4.68,8.13,0,0-19.81,2.77-16.31-7.19,0,0,1.84-11-3.5-14.61,0,0-2.85-8.18.79-13.67,2.71-5.48-.79-6.4-.79-6.4S485.57,555,492,546.73c.86-1.78.86-4.55,1.72-7.26.92-5.49-.86-11.9.92-27.34.92-14.61-3.63-13.67-2.64-14.61,0-1.78-1.78-16.38,2.64-20.93.92-.94.92-2.77,1.85-3.63a59.94,59.94,0,0,0,2.7-6.35,4.35,4.35,0,0,1,0-3.63c1.85-1.86,4.57-2.78,5.49,2.64v4.62Zm17.17,5.41c1.06.94,0,14.68,4.62,20.09,0,0,2.71,10,0,15.45a14.69,14.69,0,0,1-.84,5.49c0,.93-1.8.93-1.8,1.78-.92,3.7.8,7.34,0,8.25s-3.77.86-3.77-.91c-.85-.87-.85-2.72-.85-5.49a12.79,12.79,0,0,1-1.78-5.48c0-1.84-.92-6.34-.92-11.9v-12.6s-1.8-7.34-.94-11.05c1.86-4.47,5.43-4.47,6.28-3.63Zm-54.49,93.87c.92-1.84,3.63-.92,3.63-.92v6.34c2.77,1.92,2.77-3.63,2.77-7.26a10,10,0,0,1,.86-2.72c-.86,0,1.91-4.55,3.71,5.49,2.7,8.19,4.49-8.2,1.84-10-2.83-.93,0-18.23-.92-17.32-.92,0,.92,0-.92-2.76-1-3.64-2.71-15.4-4.57-15.4-1-1,0-32.82,0-32.82,1.86-5.48,4.57.86,4.57.86-1,0,1.84,17.3,1.84,17.3l-.92-.86c.92,0,.92.86,1.78.86v1.86s0,11.81.86,13.67a32.1,32.1,0,0,1,0,10c-.86-.91,1.9,5.49,2.71,0,1-2.77,1-2.77,1.91-3.69.86-5.43.86-13.68,1.78-20.95.86-9-.92-15.45,0-20,1.93-11.9.86-17.36-.92-17.36-2.77-6.35-8.12-2.71-8.12-2.71-2.72-.87-.92,10-.92,11.88,0,2.78-3.71,0-3.71,0l-.86-5.48c.86-5.49-9-9.12-10.9-13.67a3.68,3.68,0,0,0-3.63-1.78c-1.85.92.86,0-2.77,1.78s-5.48-.86-5.48,0c.93,0-2.7-.86-.86,1.78.86,2.77-.87,34.62.86,33.76,2.77-.92,3.7,4.54,2.77,9.11,0,10,6.34,15.45,2.71,21.86,0,.93.92,1.79,0,2.71,0,.92,1.85,29.19.92,36.46v1.79c-.92,0,2.71,5.55-4.5,8.26,0,0-1.9,5.41,2.67,1.78,0,0,6.4-3.63,5.54-7.27,0,0,1.77-2.77,2.71,0,0,0,0,3.64-1.85,4.56.91,0-.86,7.33-6.4,9.11-6.3,2.71-2.67,8.2-.87,8.2,2.7,0,1.78,8.11-.93,8.11-2.77,1-2.77,2.79-.87,4.62,0,0,1.8,5.43,3.58.87,0,0-2.71-4.5.92-3.56,0,0,.93-19.15,7.34-25.58.86,0,.86-.84,1.78-1.77,1.78-5.49.86-9.12.86-9.12Zm-40-123.92c-2.76,1.86,1.85,5.49,0,7.34-5.42,4.5-10,13.67-16.38,17.3,0,0-2.71-.92-1.86,3.58,0,0,8.26,52-.85,67.5a3.32,3.32,0,0,0-.87,2.71c0,.92-8.25,39.17-1.83,26.42,0,0,2.7-1.85,1.83.86,0,0-3.69,17.3,0,11.89.87-.93,1.72-2.79,2.79-5.48.79-2.78,2.57-.86,1.78.92,0,0-2.85,11.82,1.78,4.56l1.85-4.56s3.56-4.56,2.64.93c0,0-.86,17.22-10.84,16.38,0,0-14.58-5.49-8.25,6.41,0,0,3.7,1.7-3.56,4.49-7.34,3.69,0,5.47.86,1.83,1.85-2.69,4.55.87,2.7,1.86,0,0-3.56,10,4.56,3.57,0,0,.92-7.26,14.53-5.43,12.75,1.86-2.64-6.32-.86-2.69,0,0-7.19-.94-.91-4.57,6.33-4.63,12.74-37.37,10.89-36.46,0,0,3.63-16.38,7.27-.91,0,0,2.77.91,2.77-1.8-2.77-6.4.92-19.16,2.64-21.92,1.78-1.78,1,0,1-.86.79,0,5.41-28.28,0-30.06s-6.4-46.43-4.55-42.8c.92,3.63-.94,0-.94,0s3.64-14.66-2.69-11.89c-1.86.86-1.86-.92-1.86-1.78-.93-3.71,1.86-13.67-3.63-7.34Zm13.67,21s2.64-11,4.55,0c.86,10,.86,28.2.86,28.2s-.86,5.43-3.56.93-1.85-29.13-1.85-29.13Zm.79,106.54c1.85,1.79,2.85-16.44,3.76-24.57.86-7.26,3.63-.92,3.63-.92s.87,13.67,2.66,23.65c1,10-8.2,11-8.2,11-8.13,5.48-3.63-11-1.85-9.12Zm6.42-44.64,1,11s-1.77,2.71-1.77.86c0-2.72.8-11.82.8-11.82Zm39.09-39.24s-1.78,10.11-1.78,12c0,2.69,2.7,0,2.7,0l-.92-12Zm-14.6,93s-1.78-4.55,0,.93-4.49,3.64-4.49,3.64c0-9.12-4.48,1.77-4.48,1.77-5.49,15.45-1.85,20.94-1.85,21.93,0,1.78,2.77,0,2.77,0-1.86.94-1.86-4.55-1.86-4.55,3.64-7.34,6.35,0,6.35,0,0,7.26,6.41,0,0-2.71-5.41-2.78.92-10,.92-10,5.49-7.27,4.49,4.55,4.49,4.55,2.72-1,1,9.06,1,9.06-1,3.69,3.63,1.83,3.63,1.83,1.78-3.63,9.9-3.63,9.9-3.63,1.86,0,0-1,0-1l-4.55-3.56c-13.61,1.86,0-3.71,0-3.71,3.69-.84-1.78-1.77-1.78-1.77-2.65.93-2.65-1.78-1.79-2.72a1.32,1.32,0,0,0,0-1.84c-5.41,1.84-3.69-9.11-3.69-9.11-3.58-9.05-4.57.92-4.57.92Zm-29.85,6.34s.79-4.55,1.79-2.64c0,0,5.41-1.91,4.54.87,0,.91-3.63,11.81-5.54,10.95-1.85-1.84-.79-9.18-.79-9.18Zm-6.4,12.81,4.55-2.77h.79l1.06,5.41-1.06,5.49L439.2,606l-3.64-4.57Zm9.1,9.12s-2.7-14.59,4.5-11c4.56,0-7.2,8.26-4.5,11ZM520,590.46s-.85-10.05,2.85-10.05c0,0,.92,0,.92,1.86,0,0,0,8.19-3.77,8.19Zm8.26,14.59-.86,5.49s-4.55-2.7-2.83-7.26c0,0,2.83-.92,1.84-2.78,0,0-2.64-10,3.63-7.26,0,0,1.8-2.78-.92-8.26-.86-.92,0-3.63,0-7.26,0-6.41-.86-13.67,0-14.61.92,0-.86-11,1.85-11,2.78-.87.87,7.32.87,7.32l1.91,11.83s2.58,15.53-.92,13.67c-2.79-1.78,0,8.26,0,8.26s5.41,9.12,5.41,0c.92-9.18,2.78-3.63,3.64-3.63,0,0,5.48,1.72.91,4.49,0,0-4.55,5.48,1.8,4.55,5.46-.86,6.33,11.89,2.77,10.9,0,0,1.78-13.6-5.48-6.27l.91,7.26s-1.77,1.78-2.69-1c-.94-1.71-.94-12.76-6.35-10,0,0-1.91,2.78,1.78,5.47,0,0,.8,4.5-2.7,2.79,0,0-1.86-11.05-4.57-2.79Zm33.63-12.75s0-6.33,2.7-1.84c0,0,.86,8.19,2.71,8.19,0,0,6.4,4.63,5.49,5.41,0,1,3.63,3.78,0,1.93-3.64-.94-5.49-1.93-4.57.86,0,0,.93,6.4-1.78,1,0,0,1.78-9.19-1.85-8.26-3.63,0-2.7-8.25-2.7-7.28Zm15.39,7.28s-1.78,5.47,0,4.48c1-.78,1,4.62,1,5.49.79,1,2.64,0,2.64,0v-6.27l-3.63-3.7Zm-10-18.23-.86,1.85h.86l4.57,2.77h.92l-.92-2.77L570,581.35Zm4.57,6.4-.86,2.71,3.5,1.84v-2.69l-2.64-1.86Zm-18.18-40.09s2.71-12.74,4.49-.93c0,0,1,10.9,1.86,10.9s2.71,1.85,1.85,2.78,0,.92,0,.92,0,15.53.86,15.53l.92,1.78s-2.71,9.11-7.27,2.71c0,0-4.55-1.78-1.72-10,0,0,2.64-6.35-1-4.49,0,0-3.64,0-.92-12.83,0,0,1.91,1,1.91-1.83a17.68,17.68,0,0,0-1-4.5Zm14.53,12.75-1.78,8.19s2.71,4.55,1.78,6.34c0,1.92,2.79.92,2.79.92v-4.55L570,566.82l-1.72-6.41ZM427.38,603.28c-.86-2.78,0-11,4.55-10,0,0,5.49.86,4.57-6.4,0,0,3.56-.87,1.84.91-.92,1.86.86,5.49.86,5.49s-7.27,7.26-8.19,9.12c-.93,1.7-3.63,4.49-3.63.92Zm-39.11-10c1.85,1.78,3.63-5.49,6.4,0,1.8,5.41-3.63-.94-2.77,10,0,0,0,5.4-3.63,1.77-2.64-2.69-.92-13.72,0-11.81Zm-7.19,19.08s-1.85-5.47,1.78-4.48h4.49s1.85-1,.92.84c-.92,2.8,0,8.2,0,8.2s-2.64,4.63-3.56,0c0,0,1.78-7.33-1.85-4.56s-1.78,0-1.78,0ZM379.23,595s-2.72-2.72,0,.93c2.71,4.55-3.64,8.11-6.41,11.89-3.57,4.48,1,4.48,1,4.48,6.27-4.48.86,6.42.86,6.42-3.64,2.77.91,3.56.91,3.56,3.64,0,2.72-10.82,2.72-10.82.92-.94.92-4.63.92-4.63-.92,0-.92-5.43,0-3.57,1.85,2.71,3.63-5.49,3.63-5.49s1.85.86,0-5.49c-1.78-7.32-3.63,2.72-3.63,2.72Zm44.58,25.55s3.57-4.62,5.42-1c.85,3.63-3.7,1.93-1.85,4.63,1.85,1.8-3.57,4.56-3.57,2.71,0,0-3.69-.91-2.7-2.71a13.43,13.43,0,0,1,2.7-3.64ZM411,625.14s2.77-5.56,3.63-5.56c0,0,2.77-1.78,2.77,0,0,0,2.72,0,.86,1.93,0,0-1.77,3.63-.86,3.63,0,0-2.77,5.36-4.62,3.63a.82.82,0,0,1-.79-.93,8.33,8.33,0,0,0-1-2.7Zm-8.13,1.78s-2.71-3.71,0-4.62c1.78,0,2.72-2.72,2.72-2.72s3.55-1.78,3.55-.84a2.54,2.54,0,0,1,1.07,1.83s-3.78,3.64-2.79,4.57c0,0-1.83,4.5-3.69,1.78-2.71-1.78-.86,0-.86,0Zm-9.11.92v-3.63c.91,0,3.7-3.64,3.7-3.64s1.71-1,1.71.94l-.85,3.63s.85,6.28-3.65,2.7c-3.63-2.7-.91,0-.91,0Zm-6.41-2.7s2.77-4.57,4.55-4.57a.92.92,0,0,1,.94.94v1.7s-2.72,1-1.8,2.8-2.77,1.83-2.77,0c0-.87-.92-.87-.92-.87Zm-7.26,2.7-.86-2.7s1.85-2.84,3.63-1.93c1,1,1.85-.91,1.85,1l-.86,2.71-1,.92v1.8h-1.78v-.87l-1-.93Zm0-.92v0Zm-7.27-1.78h2.77l.92.87v.91l-.92.92v.93h-1.77v-.93h-1v-2.7Zm6.41,17.3s-1.78,8.21-.92,10a2,2,0,0,1-.86,2.7c-1.86-.92,0,3.7,0,3.7.86,5.49,4.49-1.85,4.49-1.85,2.77-2.77,2.77.94,2.77.94s.92,9,0,9c-1.85,0-1.85,2.78-1.85,2.78s1,4.55,1,5.48c-1,.86,1.78.86,1.78.86,1.72,1.83,0,5.54,0,5.54s-3.69,5.41-2.77,6.41c0,0-4.55,3.57,1,7.13,5.35,2.77-5.54,7.34-5.54,7.34-5.49,0-2.72,12.75-2.72,12.75-.91,3.69,7.27,7.32,7.27,7.32,6.34,2.71,2.77-3.63,2.77-3.63-2.77,0-6.4-4.62-6.4-5.48-2.72-12.74,8.12-10,8.12-10,1.85,3.63,2.77-3.63,5.49-3.63,1.83-.92,1.83-8.19,1.83-8.19,1.8-4.57,5.49.92,5.49.92,1.8,4.57,2.71-.92,6.27,3.63,2.71,4.57,6.35,0,6.35,0,1-4.55,5.48,0,5.48,0l7.27,4.57c-.91,2.7,5.48,0,5.48,0,4.55-.93,15.45,8.11,15.45,8.11s5.43,8.26,5.43,7.28c1,0,3.64,2.83,0,4.68-2.66.86,1,2.72,1,2.72,11.84.86,2.67-11,0-11.84s-2.76-5.48-2.76-5.48c.86-1.84-5.41-6.4-10.9-8.26s-4.55-13.59-4.55-13.59c-3.64-8.26,4.55-6.43,10-8.26S451,662.46,451,662.46s.93-8.26-.86-10c-.87-2.77.86-2.77.86-2.77,3.7,0,1.9-3.63,1.9-3.63-5.4-1.85,3.58-7.27,3.58-7.27,2.77-.93-.91-2.78-.91-2.78-2.67-4.55-1.8,1.85-2.67,1.85-1-.86,1.8.93-1.9,3.63-.86,0-.86,1.85-2.7,1.85-9.92,5.49-4.57,25.51-3.57,25.51,0,0-1.79,0-1,.92,1.91,0-1.85,3.62-1.85,3.62-.79.93-8,.93-15.32-1.77-6.4-2.77-7.34.86-7.34.86-4.55,5.46-6.4-.86-6.4-.86,1-3.63-1.78-2.77-1.78-2.77-3.58,2.77-2.71-1.86-2.71-1.86l-1.86-7.34s1.86-3.56-.84-3.56c-2.72-.93-.94-11.88-3.63-10.89s-.94-3.71-.94-3.71c2.71-4.49-1.85-2.7-1.85-2.7-.85,0-4.5-3.65-4.5-3.65.94-1.83-4.55-3.68-4.55-3.68-13.61-5.41-10.89,11-10.89,11Zm1.85,3.58,1.78-.86,1,1.84v4.49h-2.77V646Zm8.12,2.77h2.7l.94.86v1l.92.84,1.85.93-.94,2.7-.91.93H391.9v-2.71l-.86-.92-.92-.93-.92-2.7Zm3.64,9.12s2.77-.94,2.77,0c.86.91.86,1.7,1.85,1.7l2.7,1a2,2,0,0,1,.86,2.76s-2.7,2.72-.86,4.58c2.71.86,2.71,2.63,2.71,2.63s7.34,6.41-.91,5.49c0,0-2.79-2.72-1.8-3.63,0,0,.86-1.86-1-.86,0,0-1.71.86-1.71-1l-1-2.63s-2.71,0-.86-3.64c0,0,.86-4.7-2.77-2.84-2.72,1,0-3.56,0-3.56Zm11.81-22.81.94.87c3.55,1-2.72,12.82,2.7,15.52-.87,2.71,1.92,1.85,1.92,3.63,0,.93,2.57-6.33.79.93s5.49,10.9,5.49,10.9c1.77,1.86,2.69-.86,2.69-.86.94-2.72,6.35-.92,6.35-.92a6.6,6.6,0,0,1,7.34,3.64c7.19,4.54,6.33-1.86,6.33-1.86v-4.49c0-1-1.78-1-1.78-1-2.77,1,1.78-10,1.78-10l.86-4.49s-.86.85,8.2-7.33c8.18-8.25,0-10,0-9.17s-40.84.92-40.84.92c1.72,1-1,1-1,1-2.7,0-1.78,2.69-1.78,2.69Zm8.13.87,1-.87h.86l1,1.86h-1l-1.85-1Zm14.6,4.62h2.7v1.85h-1.84l-1.72-1.85Zm0-5.49h-.86l1.72-2.69h1.84l-.85,2.69Zm-14.6,6.35v-.86c-.79,0,0,.86,0,0l2.84.86v1.85l-2.84-1.85Zm5.48,1v-1.85h1.86l1,.86v1Zm-10-1H411l1,2.72-1,1-1.86-1-.85-.87v-1.85Zm10.89,12.75h.94l1,1.85h-1.93V654.2Zm-1.78-6.35h2.72l1,.94-1,.86h-1.86l-.86-1.8ZM405.59,647l7.19.85s5.48,0,1,3.64c-3.56,3.63-1.78,1.85-1.78,1.85l-6.4-6.34Zm102.64,20a4.11,4.11,0,0,1,3.77,3.63c0,2.77-2,4.63-3.77,4.63s-3.57-1.86-3.57-4.63a3.9,3.9,0,0,1,3.57-3.63Zm0-6.34a10.93,10.93,0,0,0,0,21.86c5.55,0,10-4.57,10-10.89s-4.49-11-10-11Zm0,2.76a7.1,7.1,0,0,0-7.21,7.21c0,4.63,2.72,8.26,7.21,8.26,3.77,0,7.32-3.63,7.32-8.26a7.71,7.71,0,0,0-7.32-7.21Zm0-2.76a10.93,10.93,0,0,0,0,21.86c5.55,0,10-4.57,10-10.89s-4.49-11-10-11Zm0,2.76a7.1,7.1,0,0,0-7.21,7.21c0,4.63,2.72,8.26,7.21,8.26,3.77,0,7.32-3.63,7.32-8.26a7.71,7.71,0,0,0-7.32-7.21Zm-.81-48.27c-30.1,0-54.56,25.49-54.56,56.48s24.46,56.47,54.56,56.47c29.87,0,54.51-25.56,54.51-56.47s-24.64-56.48-54.51-56.48Zm0,5.47c26.37,0,48.11,22.73,48.11,50,0,28.28-21.74,51.06-48.11,51.06s-48.21-22.78-48.21-51.06c0-27.28,21.8-50,48.21-50Zm-11.88,6.35,7.26,29.13v1.86H501l-.92-1.86L487.35,630.5a8.4,8.4,0,0,1,8.19-3.58Zm2.71,0s3.71-2.71,5.49-.91c0,0,1.78,1.83,1.78,2.76-.86.87-.86,19.08-.86,19.08H502.8L500.1,636c.92,0,.92-.87,0-.87l-1.85-8.18Zm11-1.78s4.56-1.93,5.47.87c0,0,2.72,0,0,5.41a22,22,0,0,0-2.69,10c.78,4.57-2,14.6-2,14.6h-1.78s-.81-30,1-30c1.78.91,0-.87,0-.87Zm9,3.63s1.77-3.63,3.56-1.85c1.06,2.72,2.78,1.85,2.78,1.85s4.55-.93,1,4.5c0,0-10.92,17.38-10.92,19.15,0,0,0,3.63-1.91.92,0,0,1-9.17,1.91-8.18,0,0,2.72-11,1.8-10.06-1.8,0,1.78-6.33,1.78-6.33Zm-40,9.05V635.1l3.56-2.69v-1h2.71l1.91,3.68,11.76,22.81v1.7l-1.78-1.7-18.16-20.09Zm50.85-5.41.92-1,2.79,1v.86l3.5,1.83c3.77,2.72-3.5,4.57-3.5,4.57L520,655.12,517.41,657V654.2l11.75-21.79Zm11,6.34,2.69,6.41V647l-11,5.42L521,660.61l-2.71-1v-.79l21.87-20.07ZM521,663.37l23.65-14.58,1.78.86v3.69h1.78l1,1.78v.93l-1.78.92-20.95,7.34-5.47-.94Zm1.91,3.58,25.3-7.34H551v9.2H522.89l-1.06-.86,1.06-1Zm0,4.63h29v9h-3.7l-1.78-1.78-6.27-.94h-5.57l-.78-.91H528.3l-.86-1.78h-2.83s-2.78-3.63-1.72-3.63Zm1.72,6.32h2.83l1.72.94,6.41.92v.86h6.35l2.71,1,3.56.86h1l.91,3.64-.91,4.55-1.78.93L523.81,677.9Zm-48.1-38.23,18.11,20.94v1.85l-2.64-1-11.83-10-6.41-3.64H472v2.8l22.66,14.52v.92h-1.78l-8.26-2.72s-3.57-1.9-4.43-1.9-11.89-2.65-12.81-2.65c-1.78,0-1.78-3.7-1.78-3.7l1.78-.92v-5.41l1.85-.94h.92V646l4.49-6.35Zm-12.73,20.94h1.78l4.55,2.76,10,1.8L492,668l.86.86v1.77H469.19l-3.63,1-1.78-1-.94-1.77V667l2.72-.86-.86-1.78h-.92v-3.7Zm0,14.6.92-.93,29-1.84.92.91-1.78,1.86-24.58,8.12-4.48-.86v-7.26ZM495.54,677v1.85l-25.43,15.53a6.09,6.09,0,0,1-2.77-7.35l28.2-10Zm-25.43,20.93,26.36-17.3h1.78l-.86,1.85-15.52,17.31-3.56,5.48h-1.8l-6.4-7.34Zm30-14.59s-3.63,3.69,0,1.86c3.64-2.72,2.7,5.47,2.7,5.47L501,694.37l-.92,3.55-1.85,5.49v6.4c1.85,5.43,2.77-1,2.77-1l1.78-6.33.94-10c1.78-6.4,2.69,0,2.69,0l1,20c1.8,5.49,2.59-1.79,2.59-1.79l2-21.92c-1-9.06,4.49-1.8,4.49-1.8l13.59,22.79v2.72h-2.64l-1.83,1.78c-2.72,1.79-3.78-3.57-3.78-3.57L521,707l-2.71-5.41-.86-5.49-.92-2.77-.94-.86h-1.77v.86l.91,7.34L520,713.45v3.63h-1.77l-2.72-1-7.32,1-.81.94H502l-2.79-.94v-2.77h-.92l-.86,1.79H490.2l-2.85-1.79.92-1.78.86-3.71,3.71-6.33,3.63-7.34L500.1,687v-.91l-.93.91-1.78,1.8L492,697.08s-5.49,10-5.49,12.73-2.72.93-2.72.93l-4.54-1.92V707l.92-.86,18.1-21,1.85-1.86Zm17.31-1.72,19.88,21.8s-1.72,7.33-3.5,5.41c-2.78-1.78-15.52-22.71-15.52-22.71l-.86-4.5Zm4.42-1.85,22.8,13.61a2.12,2.12,0,0,1,.92,2.77c-.92,1.78-1.86,3.64-1.86,3.64s0,2.71-2.63.93S521,681.61,521,681.61v-1l.85-.86Zm-80,7.26s-4.42-7.26,1.85-6.4c0,0,7.27-2.72,7.27,2.71,0,0-.86,15.53,4.57,15.53,0,0,3.68,5.48,2.76,7.32l7.27,8.13,4.55,4.62s0,3.63-2.77,3.63c0,0-1.78,3.63-2.64,0,0,0-1.86-8.25-6.41-11.82,0,0-3.63-3.7-3.63-6.4,0,0,0-4.56-4.56-4.56,0,0,0-4.63-1.84-2.7,0,0-4.57,1.78-4.57-3.71,0,0-3.63-2.71-1.85-5.35,1.85-2.83,0-1,0-1Zm-9.91-66.45s-.92,0,5.49-3.69c5.48-2.77,2.64,3.69,2.64,3.69-1.72,0-1.72,2.64-2.64,3.64a1.94,1.94,0,0,1-1.86,1.8c-3.63,4.49-3.63-4.5-3.63-5.44Zm11,3.64s-1.06-3.64.79-3.64l3.77-4.62s5.4-1.84,4.43.93c0,0-3.63,3.69-2.66,5.42,0,0-2.77,8.2-4.54,2.84-1.79-6.4-1.79-.93-1.79-.93Zm10.83-1s-1.84-3.63,0-4.47c2.71,0,7.34-3.64,7.34-3.64l1.77.85s-6.4,6.35-3.63,7.26v1.93h-4.55l-.93-1.93Zm11,1.93c-6.41.87-2.77-2.84,0-4.57,3.56-1.83,1.78-2.77,1.78-2.77a9.48,9.48,0,0,0,2.71-.92l.92,1.86s-2.77,6.4.86,3.56l2.77-3.56s3.58-2.79,3.58,1.83c-.81,3.64-2.72,2.64-2.72,2.64v1.93l-2.64,2.7s0-4.63-7.26-2.7Zm-.92,7.27s-2.71,2.69-4.57-1.91c0,0-.92-2.66.86-2.66h1s2.71-.92,3.63,0c1.78,1.8,2.64,1.8,2.64,1.8l.92.86h.93l-.93.92v1h-.92l-.86-1h-2.7v1Zm88.11,1.78c-1.8-2.77,5.47-6.35,10-4.55.86.86,2.7,0,2.7.86,1.85,1.91,1.85,5.47,1.85,8.25,0,0-1.85.92,0,.92s0,3.63,0,3.63l-1.85,3.7v.85l.86.94v7.26h-2.7l-.86-2.71c-.93-8.18-8.2-16.38-10-19.15ZM610,650.65l1,.84s-1,.93-1.77,1.85L611,657c.87,3.64-2.76,4.5-2.76,4.5-1.79,3.7,2.76,4.62,2.76,4.62h6.28l1,.86.92,1.86H621v-2.72l-.93-.92h-1.78l-1-.86v-1.85c0-1,1-1.85,1.91-1,.86,1.9,1.79,0,1.79,0v-3.56s-.93-11.89-.93-13.74c0-.87,0-3.58-1.78-1.73-1.78.86-3.71-3.69-3.71-3.69.86-1.79-5.33-4.56-5.33-4.56l.78,16.46Zm-2.72-16.46c1.94,0-2.69.91-1.83,0,0-.92-1.72-.92-.86-1.78,1.85-2.77-7.21-1.91-11.76-2.77-3.7-.87-2.77,4.55-2.77,4.55-.93,1.78,5.47,5.48,5.47,5.48,1.85,2.77-3.63,4.5-3.63,4.5-1.84,3.68-3.64-2.72-2.77-4.5s-1.78-1.85-2.7-1.85v-4.55l-1.85-.86-.87-1.91V637c-.92,1.79-4.62,2.71-4.62,2.71-7.19,1.78-5.36-7.26-5.36-7.26v-2.77h-2.69L570,636l1.07,1.85s1.78-.86,1.78.93c0,0,0,2.7-.92,2.7-1.93,0-4.57,4.57-2.72,8.2,0,0-.93,9.17,1.86,7.32,1.78-.92,1.78,3.64,1.78,2.64,0-.79-.92,1.86-.92,1.86l-.86,1h-2.79v1.85h4.57l-.92-.94v-.91h.92l.91-1,.81-.86h3.76v2.76h-1l-1.78,1.8-1,.92-1.72.86s-.92-.86-.92,0v1.86h3.63v1.77l-1.8,1-.91.86.91.91h1.8l.92,1.86v.86l-.92.92h-1v2.77l1,.86,1.78,1,1.78-1.85,1-1.86h3.63l.87-2.69h.92l.93-.93h.92v.93l.91.86v1.83l-.91,1.86-.92,1.85v.86l-.93.86H582.8v-3.57l-.93.86-.92,1-.86.86-1,.86-.79,1v.86h-1l-1.78.92v3.69l.92.86h1.85v-1.84h.79l2.77-.8v2.64l-1.78.93h-1v1.78h-.79s0,1.78.79,1.78a2.94,2.94,0,0,1,1.85,1h.92c0,.94,4.57,1.78,4.57,1.78v1.86c-.93.93,0,2.71,0,2.71l.92,1.85,1.78.92V707c.93,0,.93,2.77.93,2.77l-.93.93v.92a.85.85,0,0,1-.87.87c-.91,0-1.83-1.79-1.83-1.79l-.93-1.92s-2.71-1.78-1.79,1,.87,1.85.87,1.85l.92.87.93.92v9.11h.92l1.78.94,2.77-.94v-.92l.93-.86v-1l.87-1.77-.87-1.92v-7.28s1.78,1,1.78,0v-10.9l-.91-1.78v-2.77s4.49-13.61,6.32-9h0a3.53,3.53,0,0,0,.94-1.86v-8.19h1.85s2.64,0,1.78.93v-2.77h-.86l-.92-.86-2.79-1s-1.83-6.27,0-6.27c2.79.86,1.93-1.85,1.93-1.85l2.64-3.64s1.85-12.8-7.21-4.62c-9.12,7.27-5.48,2.77-5.48,2.77l-1.84,2.64-1.8,1.86-1.83,1-1.85.91h-.87s-4.62,0-1.85-3.76a9,9,0,0,1,5.49-5.41l3.57-3.55v-2.8h4.61l1.85-2.69,1.78-1L600,646l.94,2.77h1l.86.86h2.64l4.55,1-2.72-16.46Zm1,0h0Zm-40,23.72.93-.94v2.64l-.93,1.86h-.92l.92-3.56Zm0,7.26.93.92.79.86-.79,1-.93-1.86v-.92Zm-3.63,5.41c.86,0,.86-5.41,2.71-.85,0,0-.86,6.34.92,7.26h.93v2.77c-.93,4.57-.93,9.06,0,9.06a1.93,1.93,0,0,1,.79,2.77c-.79,1.78,2.85,8.19,2.85,4.55l.91,1.78s-1.83,1.86,0,1.86c0,0,1.8.93,2.72,0,0,0,5.41,0,4.49.93,0,1.78.92,1.78.92,1.78s.93,1.85,0,2.77c0,0-.92,2.72,0,2.72l-.92,1.83a3.22,3.22,0,0,0,.92,1.85,2.63,2.63,0,0,1-2.77,2.65c-2.64-.86-.79,1.79-.79,1.79a1.83,1.83,0,0,0-1.85,1.92s-.92,5.48-2.72,5.48h-.91s-5.49,3.63-4.57-2.72c1.72-6.47,9.06-9.12,8.2-15.52,0,0,0-3.63-1.91-1.85,0,0-1.72,8.25-3.5,7.33-1.07-.93-2.79.92-2.79.92l.93.87s.79,2.71,0,2.71c0,0-5.48,7.32-6.4,7.32h-.86s-1.85,3.63-4.57.94c0,0-3.63-1.86-4.55,0,0,0-9.12,2.69-7.26-1.86,0,0-1.86-7.33,2.64-5.54,0,0,1,0,0-1.79,0,0,1-3.57,2.77-2.65,0,0,2.77-5.48,3.76-4.62.81,0,1.72-3.63,2.64-2.7h0s3.64-2.71,1.85-3.63c0,0-1-7.34,1.79-6.34,0,0,4.49-1.86,3.63-8.26-1.84-7.27,0-16.38,0-15.53Zm40.83,9.18s0-6.41,1.83-5.48c1,.93,1-.93,1-.93s1.77-3.62,2.76-1.77c0,0,.87.86.87,0,0,0,0-2.77,2.69-1,0,0,5.49,2.77,6.42,1.86,0,0,1.78,0,.87.91,0,0,.91,6.41,3.68,7.27,0,0,1.73,1,.92,1.85-.92,1.86,0,.86,0,.86s-.92,4.69,0,4.69c0,0,.81,2.64-1.83,6.35-3.64,3.55.91,7.26-5.43,9,0,0-3.77,3.63-2.7,6.4l1.78.93.92,2.71s0,4.57-1.91,2.65l-.79-3.57s-1.07-1.79-1.93,0l-.84,3.57-.94,2.83-.91,1.85-.87.86s-8.18,2.72-3.71-3.62c4.58-5.49,2.72-4.57,2.72-4.57l1-5.47a3,3,0,0,1,1.78-.94c1.78,0,1.78-1.78,2.64-3.63,0-2.7,1.07-1.78,1.07-1.78s2.7-3.71,0-2.77l-3.71,1.85s-2.77,0,0-1.85l5.49-5.49s.92-2.71-1-1.78L611,694.37l-2.76,1.77-1.79.94s-2.71,1.78-3.63,0c0-1.93-3.65,0-1.85-5.49s6.32-6.4,4.49-8.26a2.55,2.55,0,0,1,0-3.57Zm-7.26,21.87s1-2.77,4.62-.92h1.78l1.85.92.84,1.78,1,.93v.92l-1,.92-.84,3.63v2.72l-1,.92v.86l-.86,1.79-.86,1-.92.94v.91l-1.85.86v1.85s-1.8,1.86-1.8,0a8.64,8.64,0,0,0-1-3.62l1-1.92-1-1.79s-2.66.93-1.8-1.78a4.27,4.27,0,0,0,0-3.71s1.8,0,1.8-.84v-6.35Zm2.77,2.71,1.85-1.85h2.64v3.69l-.86.86h-.86l-.92-.86-.86-.92-1-.92Zm1,3.64h1.78v3.68H602l-1-.92,1-2.76Zm28.12-51.93c0,2.77-2.82-.93-2.82-.93v-1.78l-1.73-2.69-.91-5.49c-1.86-6.41-1.86,1.84-1.86,1.84l.92,5.42.94,7.19v6.48l1.83,7.26s.81-7.26,0,.93c-.92,7.33,1.8,6.34,1.8,6.34,6.4,2.71,0,12.75,0,12.75-2.72,2.77,0,12.81,0,12.81,0,3.63,1.83-1.84,1.83-1.84v-4.56c.86-4.63,2.72-.92,2.72-.92l-.92,2.77.92,9.11c1.85,2.71,2.77-.93,2.77-.93s-.92-5.47,0-8.18c1.72-1.85,2.64.86,2.64.86v3.69s.86,0,.86,1.8,1.07,0,1.07,0V676.07s-1.07-20-1.07-21a3,3,0,0,0-.86-1.78l-.92-8.18v-2.72l-1.72-1.85c0-4.62-1.91,0-1.91,0l1,2.71.92,2.72v6.4c0,3.63-2.77,0-2.77,0l-.92-1.77v-11.9s0,2.7-1.8-.93c-1.83-4.55-1.83.93-1.83.93l.86,7.27s1,0,0,1,0,5.42,1,9Zm9-15.46s-.86-10.09,1.85-7.32l2.72,4.55s0,11.83,2.77,10c0,0,1.78,4.57.92,8.2,0,0-1.86,5.42.86,6.41,1.91,1.85,1,27.34,0,27.34l-2.72,9.06V707s-1.83,2.77-2.63,0c-1.92-2.7,0-40.09,0-40.09s.8-12.75-.92-10.9c-1,.92-1-10.89-1-10.89l-1.85-4.57Zm12.83,10.9s.78-2.7.78-.84c1,2.69,2.85,2.69,2.85,2.69V668a31.76,31.76,0,0,1,.92,6.33v9.05s-1.86,7.33-2.77,8.26c-1,0-1.78-40.1-1.78-40.1Zm7.26,14.6H661s.86-.92.86.86v3.63H661l-1.84-4.49Zm-36.4,43.72s.92,6.29,0,5.43a1.29,1.29,0,0,1,0,1.84c-1.78,0-1.78,4.56-1.78,4.56s1.78,3.63,1.78,4.55c0,1.86,2.77-.92,2.77-.92l1.73-.91c1.85-.86,0-1.8,0-1.8-4.5-1.78,0-11.82,0-11.82,1-2.76-.81-3.7-.81-3.7-2.77-3.63-3.69,2.77-3.69,2.77ZM357.43,644.17s-1-4.5.92-.87c0,0,2.64,1.86,2.64,3.7l1.07,2.65.78,1s1.85,1.77.92,8.17a60.33,60.33,0,0,0,.93,10.91v10s3.64,4.57,3.64.86c0,0-1.86-7.27-1.86-9v-7.27s0-6.4,1-4.7c0,0,2.64,4.7,3.57,1.86,0,0,.92-1.86,1.78,0,0,0,6.41,3.7,6.41,11v2.77s.86,10-4.55,8.12c0,0-1.86,1.86-1.86,2.78,0,0-2.71,5.48,1.86,4.55,0,0,3.63-2.64,2.77.93,0,0,.86,3.56-3.63,1.78a3,3,0,0,0-4.57-1.78,1.2,1.2,0,0,0,0,1.78,2.4,2.4,0,0,0,0,2.77s-1.78,6.35,2.71,3.64c0,0,5.49-3.64,3.63,0,0,0-3.63,1.85-3.63,4.56,0,0,.86,7.32-.92,9.11,0,0-2.71.86-2.71,2.65v5.54s-1.86,2.72-2.85,0c0,0-1.72-6.4,1-10.9,3.64-4.56-1-9.11-1-9.11s-2.64.86-2.64-.92V688.82s.92-5.49-.78-5.49c-1.93,0-1.07-3.57-1.07-3.57s1.85.86,1.07-.92v-10c.78,0,0-9.2-1.07-7.34,0,0-.86,1-.86-.86v.86s.86-10.82,0-10c.86-.84-2.7-7.32-2.7-7.32Zm7.26,1.85.79,5.47v.93l1,.92,1-.92V647l-2.78-1Zm0-8.2s.79,1.85,1.78,0,8.21,4.62,8.21,6.35c.91,1.85-1.86,1-1.86,1l-8.13-7.34ZM352,676.07l.84.92h.86v2.77h-.86v-.92c-.84,0-.84-2.77-.84-2.77ZM359.21,687s6.27-1.83-.86,0c-6.33,1.8.86,8.13.86,8.13V687Zm48.21,17.32s1.72,2.7,3.58,0c0,0,4.62-5.48,5.49-1.85,0,0,0,5.49,4.62,3.69,0,0,7.13-.92,7.13.86l2.77,2.77s5.49,0,5.49,1.85c0,0,1.84,1.79,0,4.44l.92,2.83-.92,4.57s1.84,3.63.92,4.55c-1.86.91-.92,0-.92,0s0,8.2-1.85,4.55c0,0-3.64-1.84-2.72-2.77,0,0-.92-2.7-2.7-.87,0,0,.85,6.29-1.85,3.64,0,0-2.76-.92-.86-5.47,0,0,.86-3.63-3.7,0,0,0,0,8.12-3.64,5.47,0,0-2.69-2.77,0-3.64,0,0,1.93-5.46-3.56-1.83,0,0-1.85,9.12-5.41,6.33,0,0-4.62-3.63,0-4.5,0,0,3.56-2.77,0-2.77,0,0-6.48-.92-6.48,3.64,0,0-2.71,2.77-2.71-.87l.94-2.77s1.77-2.69-1.8-1.83c0,0-4.55.91-5.49-.86,0,0-.91-4.57-4.55-2.72,0,0-2.77-1.85-2.77-6.47,0,0,.92-3.57-2.64-1.78,0,0-.86,3.57,0,3.57s-1.85-1.79-1.85-1.79-1.78-3.57,0-3.57c0,0,3.63-4.56,3.63-1.92v1s.86-2.77,1.78-3.63l6.4-3.69,3.65-.86s7.27-.92,7.27,1.78,1.83.93,1.83.93Zm28.14.92s21.8,10.84,10,18.24c0,0-3.76,2.69-2.7,0,0,0,7.2-10-4.56-14.68-11.82-5.41-2.78-3.56-2.78-3.56Zm6.28,21.87s-5.34,3.63,0,6.33h1.85v-6.33Zm4.62,1.83h5.43v5.43H450.1l-2.64-2.71-1-2.72Zm9.07,1.8,5.54-3.63h3.63V729l-2.77.87v4.56l-2.72.86s-4.55-1.79-3.68-4.49Zm13.66-.93s6.41-5.47,4.55-3.64c1.86-1.83,2.77,1.86,2.77,1.86-3.76-.92-4.55,7.2-4.55,7.2-1.85,1-6.4-1.79-6.4-1.79-1.78-3.63,3.63-3.63,3.63-3.63Zm7.32,1.85,1.8-2.72s3.56-1.83,2.7,1.8l-.86,4.49a2.51,2.51,0,0,1-3.64,0c-.91-1.79-.91,0-.91-1.79s.91-1.78.91-1.78Zm10-.92c0-.93,2.64-2.71,2.64.92,0,0,1.07,1.78,0,2.71,0,0-.86,3.64-2.64.86,0,0-2.72,0-1.91-3.57,1-4.55,1.91-.92,1.91-.92Zm7.21.92h2.77v4.57h-1.85l-1.78-1,.86-3.57Zm6.4,1.78,3.64-2.7h2.69v3.63l-1.77.86v1.84H502.8L501,735.25h-.92v-1.79Zm9.91,0,1-1.78h5.49l.92,2.71-.92,1.86-.94.84H512l-1-2.7-1-.93Zm9.18-2.7h3.7s.92-.93.92,1.84a4,4,0,0,0,.8,2.65H521s-2.71-2.65-2.71-3.57l.92-.92Zm6.42-1.8v3.64h1.83v2.65h4.44v-4.49h-1.8l-.92-1.8Zm8.18.87.78,3.63h1v1.79l2.71-.86v-3.63l-1-.93s-3.5.93-3.5,0Zm8.13-.87v-.91l3.63,1.78,1.85.93-1,3.63h-2.72s.94-.93,0-.93v-.86l-.86-1.84-.91-1.8Zm8.17.87V729l4.63-.91.81,2.71v2.7l-.81,1.79-2.83-.86-.93-2.71-.87-1.85Zm8.13-.87,1.86-1.83,1.85.92,1.78,1.78.92,2.77h-2.7l-1.85-.92-.87-.92-1-1.8Zm9.12-1.83v3.63l1.85,1.84h1.86v-1.84L570,729v-.91l-2.64-.92Zm7.21,0v3.63h1.91v1.84H581v-2.77l-.86-.87-1-.91-4.55-.92Zm9.17-.94h2.72v1.86l.92.91v2.72l-3.64-.92v-4.57Zm8.19,0h2.71v.94h.92v4.55l-.92.92-1.78-.92-.93-.92v-4.57Zm7.26-.92H600l1.93,2.78v2.71h-2.79l-1-5.49Zm4.57-.91.86,2.77.86.92,1,.91h.84l-.84-2.77v-.92l-2.71-.91Zm6.27.91h2.77l.94,1.86.84,1.83-.84,1.8-.94-.93L611,729s0-3.69-1-3.69Zm-150.8,19.16s93.6,1.78,96.32-.92c2.69-1.79,6.4,4.55,2.69,8.11,0,0-6.33,0-5.41-5.41l-1.85,1s-2.77,8.13-7.27,2.72l-1.77-.94s-1.78,5.49-6.35,0c-4.56-4.55-1,0-1,0s-3.56,6.35-8.12,0l-1.84-.92s-4.57,6.41-7.2.92l-.92-.92-1.8.92-.91.94c-1,0-2.78,5.41-4.56-.94-2.79-4.55-1.8-.92-1.8-.92l-1.9,1.86s-3.56,7.26-5.42.86l-1.85-2.72-1.78.92-1.85,2.64-.92,1.85s-3.5-.78-3.5-2.69l-1.07-1.8-1.78.94s0,7.26-6.34.86l-2.7-1.8-1.8.94s-.91,9.12-7.32-1.86l-1.85-.86-.86,2.72s-.92,7.26-6.41.86c4.63,7.26-2.71-5.43-.86-6.35Zm-10,1.78h2.66l3.64,3.71v3.55l-2.67,1-3.63-2.85v-5.41Zm-9.17,0h1.78l1.06,1,.79,1.78,1,2.64v1.85H442.9c-1.06,0-3.7,1-3.7,0,0-1.85.86-7.26.86-7.26Zm-10,1h1.85l1.86,1.78v4.49h-.92s-3.64-1.85-2.79-5.41,0-.86,0-.86Zm-10,0h2.7v6.27s-3.64-1.85-2.7-3.55c1-2.72,0-2.72,0-2.72Zm-11,2.72H412l.79,3.55h-2.57l-1.07-2.69v-.86Zm155.49-6.41h4.56v4.55l-3.7,2.72-.86-.86-.92-1.86.92-4.55Zm8.2,0h5.48v1.84l.79,2.71v1.86h-4.55l-1.72-2.72v-3.69Zm14.53,0a4.45,4.45,0,0,1,2.71.92c.86,0,.86.92.86.92v2.71l-1.79.92h-2.7l.92-5.47Zm12.67,0h2.79v3.69l-1.85.86H600l-.86-1.85.86-2.7ZM608.24,595s1-2.72,1,1.77c-1,3.71,4.49,5.57,4.49,5.57,7.26,1.7,4.55,9.12,4.55,9.12-1,5.4,5.41,4.47,5.41,4.47l.94-.85s.91-3.62-.94-4.56a1.81,1.81,0,0,1-1.83-1.86c-1.8,1.86-2.66-11.89-2.66-11.89a6.71,6.71,0,0,0-1.91-4.49l-2.72-1C610,586,608.24,595,608.24,595Zm8.25-7.27c-10,5.49,6.27,6.35,5.36,10,0,0,5.41,10.89,7.26,9.06,0,0,1,1.83,4.55,1,0,0,1.91-3.78-.86-3.78s-.92-.78-.92-.78-5.43-2.78-5.43-4.63c0-.86.81-16.38-10-10.9Zm-76.35,29.13h5.41l1.85,3.69-1,3.64h-1.78l-4.49-7.33Zm8.05,0,5.54,7.33h3.63l-.92-3.64L553.73,616l-5.54.93Zm10-.93,4.57,8.26h3.69v-3.64l-3.69-3.69-4.57-.93Zm9.12,0,6.4,8.26,3.58.93v-4.57L572.83,616Zm12.75.93,5.42,8.26h2.76v-1.93l-5.47-5.41-2.71-.92Zm10,0-.93.92,5.48,7.34h.92v-5.56l-1.83-2.7Zm9.1,0-1,.92,4.62,8.21h2.64v-4.5L601,616.88Zm8.12.92H611l2.72,2.77.84,5.44-2.69-.87-4.58-7.34Zm9.2.94h2.7l3.57,2.77.92,3.63v1.78l-2.7-1.78-4.49-6.4Zm11.76,2.77,1.83,1.7V626l-1.83-.87v-3.63Zm5.41,0h1.91l.81,1.7v3.71h-1.73l-1-5.41Zm-5.41-8.26,1.83-.93.86,3.63-1.83-1.84-.86-.86Zm5.41-2.71h1.91l.81,2.71v.86l-2.72-3.57Zm-56.34,19.1h1s3.56,2.77,1.78,4.55c0,0-2.77,0-2.77-.92v-3.63Zm-118.11-450c-7.32-2.77-15.52-3.76-20,2.72-4.55,5.48-4.55,11.75-.86,16.38,2.71,6.35,1.72,10.9,0,15.44-8.26.94.86,15.55-16.38,13.7a30.75,30.75,0,0,0-15.53-4.57c-6.27-12.68-19.08-16.45-28.12-3.64-12.83-.86-20,5.49-20.88,21.87-9,2.77-17.3,7.27-22.73,14.6-2.77,4.55-2.77,9.05-2.77,15.53-4.55,2.69-8.13,8.12-10.9,15.45-3.63,7.2-2.77,14.52,4.55,19.15,2.72,8.12,6.35,10.84,11.83,10.84,2.72,10.95,7.27,17.3,13.68,21.92l3.63,5.49c4.49,6.27,12.75,1.78,17.24-9.12l1.86,10c-4.57,5.41-8.34,11-10.06,20.94.93,8.26-4.55,16.44-2.77,25.55,1.85,12.83-5.41,9.07,6.48,33.76.86,10.82,5.35,15.39,10.84,17.25,0,9,2.77,13.67,8.18,13.67-1.78,10.89,6.35,15.44,9.12,17.24a133.85,133.85,0,0,0,9,61.1c-1.78,0-2.69,3.63-2.69,7.26l-4.5,42.8c-14.6-3.63-21.87,3.63-22.78,14.6-10,6.41-10,14.53-5.43,22.72-4.56,2.84-7.19,6.47-7.19,11-5.62-2.77-10,3.69-11,14.58l-.92,23.73c-4.57,4.49-6.35,13.61,0,18.22A97.94,97.94,0,0,0,352,707c2.7,9.06,7.19,17.32,11.74,24.64,5.49-.92,10.06.92,14.55,2.71,4.55,2.7,9,2.7,14.53,1.86-2.72,11.81.92,19.08,6.33,19.94H605.46c9.1-5.41,16.39-12.68,14.59-25.43,8.2-1.8,25.42-5.49,25.42-15.52,10.06-8.2,11.84-20.87,13.69-34.62,4.55-1.78,5.41-2.72,6.33-8.18,0-6.35-1.78-9.07-6.33-9.07-2.71-11.88-1.85-20.07-10-29.18-1-7.27-4.62-11.89-10.11-17.31,4.57-11.83-2.69-17.3-8.13-21.86-2.69-21.87-24.49,0-26.34-23.71-.86-7.26-3.63-13.68-6.4-20l1-12.74,4.57-29.14c-.92-12.75,0-23.64,2.71-32.82.84-7.27,2.78-12.75,5.42-14.53,6.4-5.48,9.11-12.83,8.18-21.95,8.2-1.77,10.89-8.17,10-18.15,5.49-4.56,5.49-11,3.58-18.22,6.48-4.57,6.48-12.76,2.72-22.79v-9.12c0-9.06-1.73-16.38-6.3-23.72l-8.23-17.23c-.87-3.63,6.4,1.78,8.23,5.41,7.21,15.53,14.48,9.12,19.1-.86,3.5-5.48,8.13-11,10-17.37,5.41-11.76,20-12.68,21.8-26.42,1-10-5.49-16.39-13.67-21.87,2.77-21.79-7.26-30-27.15-29.12-3.76-14.54-10.06-22.73-19.16-26.44-14.53-5.41-27.27,2.8-33.62,15.55-5.49-1.85-11.82.84-19.1,4.55,0-7.27-3.63-14.61-10-20.1,0-10,0-14.58-5.41-22.78,0-17.3-7.26-21.85-21.8-17.3-7.2-2.64-16.32-3.56-24.58,0-4.47-2.64-8.18-2.64-12.73,1-3.5-4.55-8.13-4.55-13.55-1-3.64-.86-7.4-1.78-9.18,2.77-5.41-2.77-11.76-1.78-11.76,2.77ZM493.7,448.32l-6.35-5.41,6.35-5.44c-1.72-6.4,3.69-8.25,11.82-11,1.9,6.33,14.52,5.42,11.89,12.75-.92,3.64,0,5.41,2.63,6.33,10,5.49,2.85,13.74-4.49,12.83,4.49,2.69,6.28,5.41,4.49,10.89l-7.26.92c8.2-6.4-2.77-6.4-4.55-9.12,1-5.54-.81-9.17-5.43-12.8-2.7,9.12-8.18,7.26-10,20.07-3.71-.92-5.49-2.77-6.35-7.27.86-4.54,3.71-8.18,10-9.17.92-4.49,2.7-6.35,7.27-8.13,7.26,2.78,11,7.27,12.75,12.76,2.7-5.49.92-11-7.27-13.67,1.78-3.64.79-8.26-4.56-11-5.49,2.71-11,9.11-11,16.38Zm-15.39-20.93c-3.71.91-7.34,3.68-11,14.52,0,4.69,1.85,9.18,6.4,10-7.26,7.39-2.77,12.81,7.27,12.81-7.27-3.64-9.05-6.33,1.79-13.67,1.78-3.63,2.77-7.27-.93-8.18-5.36-1-9.91,6.32-10.9,2.69-.86-6.33,12.8-9.12,10-13.66l-2.7-4.55Zm48.14,2.76,1.85-2.76c2.71.91,5.49,1.83,6.27,5.46v5.49l2.72,2.71c3.77,4.55,1.91,14.53-7.21,13.67-1.78,0-5.47-5.49-2.64-6.4l1.72-.86,3.71,3.63c2.7-2.77,2.7-6.41-2.79-11,1.8-5.46,0-9-3.63-10Zm53.64,1.79a18.54,18.54,0,0,0-3.63,14.66c.86,5.35,4.49,7.2,7.26,9,0,7.4,3.64,10,10,9.18.91,8.2,3.68,10.89,8.25,10.05-8.25-10.05,0-11,1.78-19.23-3.71,1.86-5.54,2.85-8.2,1-2.7,4.54-9.1,3.62-7.27-1s3.64-7.26,1.8-9c-3.63,2.63-7.27,4.49-10,0,0-4.69.86-8.26,2.71-10.12l-2.71-4.54Zm-6.35-28.2c2.72,0,5.36-1.86,7.21-4.57,0,4.57-2.64,7.26-5.41,12.82-2.71,9.05,5.41,16.31,9.05,16.31,0,5.54,2.77,9.17,8.25,11.81.87,8.21,7.19,13.69,15.4,13.69-1-10.89,3.63-11.89,5.48-17.32,1.7-4.54-1.85-7.26-4.49-7.26,1.77,10-6.41,10-6.41,17.38-2.79,1.72-8.2-1-4.62-8.26,3.76-8.19,9.09-10.95,2.77-14.53-2.77-1.85-5.43,5.41-7.26,11.83-5.44-1-8.2-10,0-12.82,2.69-3.56,2.69-9.12-.87-11.82-2.77-1.85-5.48,5.41-8.25,11.82-1.79,1.85-5.49-2.7-3.64-6.41l3.64-7.26c3.68-6.35,3.68-11.84-2.72-19.1-2.77,3.63-4.55,1.85-4.55-3.56-2.77,0-3.58,6.27-3.58,17.25Zm13.62-37.39c4.55,0,1.78.91-1.85,10-1.79,5.49,2.76,9,4.56,9,2.77-5.4.86-10.81,5.47-10.81,5.43,1.77,1.85,15.44-1.83,18.15-2.78,1.86-.87,6.41,2.69,10,6.42-4.55,3.63-10.9,6.42-18.16,1.78-4.62,8.18.78,4.47,11.83,0,1.78-3.55,2.7-6.32,8.26,0,4.42,1,8.12,3.63,9,3.64-3.56,5.41-10,7.27-16.39.91-1.83,4.62-1.83,4.62,3.66-1.07,7.32-2.77,11.88-5.49,15.44-1,2.85,0,5.55,1.78,6.41a7.38,7.38,0,0,0,3.71-1.78c4.49-6.41.79-12.75,5.36-13.62,2.77-1.85,4.6,1.73,3.68,6.28s-2.77,8.26-7.26,10.11c4.49,5.41,6.35,7.26,3.58,9-7.29-4.55-13.61-4.55-14.56-12.73-4.47-.86-8.12-4.5-10.89-13.69-6.33-3.63-9-9.12-9-17.22-3.64-1.93-7.27-5.49-8.26-10,0-9.18,4.62-13.68,8.26-12.81ZM585.51,319c-1.79-3.57,0-9.11,4.56-6.34l2.77-1.85c2.7-.92,6.33,0,5.36,3.62-4.49,8.26-.81,5.49-9.93,9.12-4.55,2.77-2.76,10,2.66,6.41l5.47-1.86c3.63-.84,5.56,5.49,2.77,7.34-3.63,0-8.24.86-8.24,3.63-1.79,11.76,3.69.87,11,0,0-6.4,1.78-8.18,6.28-8.18,0-4.57,1.77-7.34,5.48-9.12,3.56-.93,5.47.92,5.47,3.64s-.92,2.69-5.47,8.18c-1.85,3.71-.94,6.35,2.77,10,1.78-5.46,6.27-6.32,7.19-2.76.94,8.25-.92,13.74,2.77,14.6l-.92,3.63c-5.48-.86-9-4.49-9-12.75-2.77.92-5.49-2.72-8.25-7.27-1,4.55-3.64,9.05-11.84,14.54-1.78,2.77-2.69,5.48,0,9.17A40.94,40.94,0,0,1,607.29,350c3.71-1.85,8.13,1.86,4.58,7.34l-8.13,9.05c-.92,3.63,2.71,8.26,4.5,6.47-1-4.57,1-8.25,6.32-11.89,2.72-1.85,7.29-.93,7.29,3.64s-4.57,4.49-9.07,11.81c-.91,5.49.94,7.34,4.5,6.41-.79-5.47,6.4-8.18,7.34-14.54,2.64-1.9,4.49-1,4.49,2.65,1,5.48-3.58,8.26-8.13,12.82a26.48,26.48,0,0,1,.87,8.18c5.41-5.41,9.09-11.88,11.81-8.18,2.72,1.7,0,5.49-7.21,11.76.81,3.69,2.66,5.49,5.43,6.4a4,4,0,0,1-5.43,3.69,9.25,9.25,0,0,1-4.6-10.09c-6.43-3.58-10.85-9-13.61-17.24-5.42,0-10-4.55-10.85-12.76-5.48-1.85-8.25-6.4-7.32-15.52-4.56-3.63-6.35-8.12-6.35-14.53-7.26-6.4-6.4-11.89,1.79-16.44Zm29-63.75c-8.11,0-14.53,5.48-14.53,16.46l-3.63.86c-3.56.92-4.49-2.79-4.49-7.34s2.71-11,7.26-15.39l-5.46.86c-2.78.92-.87-12.75-4.57-11.89,1.79,10,1.79,16.44-3.63,18.22-7.2-.85-11.77,2.79-14.46,9.19-2.79-1.85-5.56-4.62-4.57-11,3.5,1.78,4.57-1.78,7.26-2.77,2.72-3.63,6.35-2.64,10-3.63,2.72-1.86,2.72-3.64,0-5.41-3.63,2.69-9.17,0-10.89,7.26-6.35,3.56-10,0-8.2-4.57,4.56-11.81,15.46-13.67,28.21-10.89.87-12.81,10-19.16,20.88-18.22,6.33.91,8.13,5.41,10,10.9,5.43.91,8.2,3.68,10,7.32,0,6.34-2.72,9.11-8.13,10-4.55-1.77-7.26,0-9,5.49,0,3.56,3.56,7.32,10.77,0,3.68-2.71,4.62-10,9.12-8.2,19.15,8.2,31.9,2.71,28.19,28.22,2.72,8.25,10.9,9.11,13.67,18.21,0,4.57-1.91,5.43-4.55,6.43-2.71,0-6.4-3.71-10-9.12l-1.85,2.69c4.57,3.71,9.12,7.27,9.12,12.75-2.7,3.71-6.41-3.55-10-6.32a16.88,16.88,0,0,1,4.49,10.95c-1.78,0-3.63-.92-5.46-4.63a32.16,32.16,0,0,0,1,9.13c-4.55,1.85-9.1-4.5-7.32-11.82,0-5.49-5.49-10.06-11.76-10.06-5.54,1.86-8.26,7.27-8.26,15.52-3.58.94-6.4,2.72-7.21,6.36-.92,9.11,6.35,7.26,14.47,9.11,4.55,1.85-1.85,8.18,4.55,15.52-5.33,3.63-12.67-2.77-10.82-9.12-8.2.94-1.85-1.85-10-4.55-5.43-1.85-4.57-11-1.86-16.38l-.91-8.2c7.26,0,10.95-2.83,13.72-8.26-3.69,1.86-11,3.71-11.89-.84-.92-8.26-.92-11,0-15.52,3.58-7.34,11.89-5.49,20-1.85-4.57-2.72-6.35-6.35-8.07-8.2-8.31,5.48-11.89,1.85-15.52-5.49,0,5.49-.86,6.42-2.77,9.19L611,269.77c-5.54,4.62-2.76,10.05,0,11,.87-5.49,3.56-9,7.27-7.26,6.35,22.71-18.24,21.87-16.31,26.41,1.78,1.78,7.27.92,15.32-2.71,1,5.43,2.77,13.62-3.56,17.24-3.71,2.72-6.43,1-10,6.41,2.71,6.42,2.71,10.05-1.78,8.2-3.76-5.49-4.57-9.12-1.93-13.61,2.79-2.77,5.43-5.54,8.21-6.41,5.48-1.85,1.77-6.4-4.5-4.57l-1.78.94c-6.42,4.5-8.25-9.19-7.34-15.52,4.55-11.89,10.84,4.49,17.25-6.35-10.9-.91-10.9-6.4-9-12.8,2.64-8.2,13.67-9.12,11.74-15.47Zm33.63,15.47c-2.72-4.5,3.71-13.69,8.26-14.54,7.26,0,7.26,9.05,2.71,21.8a6,6,0,0,1-4.57-6.27l4.57-1.93c1.84-6.33-.94-7.26-5.48-6.33l-5.49,7.27Zm-1.78,4.54c6.27,0,12.75,4.57,13.62,11,0,3.63-5.44,5.41-5.44,1.85-1.91-11.89-9.12-8.26-8.18-12.83ZM640.92,299c0,4.55-1.85,8.18-6.27,10,.92,3.64,4.42,2.7,6.27-.93,3.64,3.63,7.27,4.57,11,.93,1.78.87,2.69,2.7,1.78,6.41-4.5,2.64-4.5,3.57-2.72,5.41.94-2.77,2.72-3.69,4.57-4.55a2.37,2.37,0,0,1,2.69,2.71c-2.69,1.84-5.54,2.77-6.32,6.41-1.8,2.69-5.49-.94-10-9.12-11,3.63-14.66-7.27-6.35-10-.92-3.69,0-6.41,2.64-8.18,0-2.77.86-5.49,3.71-6.48,1.72,1.85,2.64,3.71-1,7.34ZM419.18,429.22a18.18,18.18,0,0,1,3.64,14.6c-.86,5.41-3.64,7.27-7.2,8.13,0,8.25-3.63,10.11-9.19,9.17-1.78,8.2-4.47,10.9-9,10,8.13-10,0-10.91-1.85-18.17,3.56.86,5.41,2.64,8.12.86,2.7,4.63,9,3.64,7.27-.86s-3.58-7.34-1.86-9.12c3.64,2.78,7.35,4.5,10,0,0-4.55-.92-7.34-2.69-10l2.69-4.62Zm6.35-26.42c-2.71-.92-5.41-1.83-7.27-5.49,0,5.49,2.85,7.42,5.55,12.83,3.57,8.13-5.55,16.38-9.18,15.52,0,5.41-2.64,9-8.2,11.81A15.67,15.67,0,0,1,391,451.09c.86-11-3.69-11.82-5.41-16.44-1.78-5.43,1.72-7.26,4.49-7.26-.92,9.09,6.35,9.09,6.35,16.43,2.7,1.78,8.18-.91,4.55-8.18s-9.12-10-2.7-13.68c2.7-1.84,5.41,5.43,7.27,10.89,5.41-.91,8.18-9,0-11.81-2.72-3.64-2.72-9.05,1.83-11.89,1.72-1.73,4.57,5.48,7.21,11.89,1.86,1.78,5.49-2.77,3.63-6.41l-3.63-6.34c-3.63-6.41-2.64-12.81,2.77-19.08,2.72,3.55,4.56,1.77,4.56-3.79,2.66,0,4.56,6.48,3.57,17.38ZM412,365.48c3.63,0,8.13,3.58,8.13,12.76,0,5.48-4.5,8.25-8.13,10,0,7.27-2.85,12.76-9.12,17.36-2.71,8.13-6.4,11.83-11,12.7-.86,7.39-7.19,7.39-14.45,11.88-1.86-.93-.94-2.76,3.63-8.19a14.19,14.19,0,0,1-7.26-10c-1-4.57.86-7.26,3.63-6.42,4.49,1.85.86,7.28,5.41,13.69a7.46,7.46,0,0,0,4.49,1.78c.92-.92,1.85-3.64.92-6.41-2.64-3.63-4.42-8.2-5.41-14.53,0-5.48,4.49-5.48,5.41-3.63.93,5.41,2.77,11.82,6.4,15.52,3.65-1,3.65-4.57,3.65-9.19-2.71-4.55-6.42-5.49-6.42-7.32-3.63-10.84,2.77-15.46,4.57-11.76,2.7,7.26,0,13.59,6.4,18.16,3.56-3.63,5.42-8.2,2.72-10-3.63-2.69-7.27-16.38-.94-17.29,3.64-.92,1.78,5.41,4.49,10,1.86,0,6.48-3.69,4.63-9.12-3.56-8.26-6.35-9.17-1.78-10Zm1.78-45.57c8.19,4.55,9.05,10,1.85,16.38,0,6.41-1.85,11-6.48,13.67,1.07,9.12-1.72,13.67-7.18,15.52-.94,7.34-5.49,11.84-10.92,12.76-2.77,7.18-7.19,12.74-13.59,16.38.86,3.63-.94,7.26-4.63,9.12-2.71,1.83-5.35-.94-5.35-2.77,2.64-.87,4.49-2.72,5.35-6.35-7.34-6.41-10-10-7.34-11.83,2.85-2.77,6.48,2.63,12,7.26a23.36,23.36,0,0,1,.86-7.26c-4.49-4.55-9.06-7.27-8.2-11.89,0-4.55,1.85-5.42,4.57-3.64.91,6.43,8.18,9.12,7.26,14.61,3.69.92,5.41-.92,4.55-6.35-4.55-6.46-9-6.46-9-10.95s4.49-5.49,7.26-3.64c5.41,2.7,7.19,7.32,6.33,11.89,1.8.87,5.43-2.84,4.57-6.47l-8.26-9.05c-3.5-4.57,1.85-9.19,4.55-7.34a39.89,39.89,0,0,1,11,12.81c2.72-3.69,1.78-6.4,0-9.17-8.2-5.49-11-10-11.83-13.67-2.77,4.62-4.55,7.32-8.18,6.4,0,8.26-3.63,11.89-9,12.75l-1-2.71c3.69-1.78,1.86-6.41,2.77-14.53.92-4.55,5.49-2.78,7.27,1.77,3.63-2.76,4.49-6.32,2.77-9.17-4.55-5.41-5.54-5.41-5.54-8.13s1.85-3.63,5.54-3.63c3.57,1.78,5.41,4.57,5.41,9.05,4.57,0,7.28,1.85,6.42,8.2,7.19.92,12.75,10.89,10.83,0,0-3.64-4.56-3.64-8.13-3.64-2.7-1.85,0-8.2,3.57-7.26l4.56,1.85c5.48,2.7,7.33-3.63,2.71-5.48-8.13-4.57-5.41-1.86-9-10-1.8-2.77,1.77-3.71,4.47-3.71l2.71,2.71c4.63-2.71,6.48,1.86,4.63,5.49Zm-29.06-61c-1.85,6.35,9.05,6.35,11.76,14.61,2.7,6.34,1.85,10.89-9.12,12.75,6.41,10.95,12.81-5.49,17.3,5.41.94,6.48-.92,19.16-7.19,15.52l-1.85-.86c-6.41-1.86-10,1.78-4.57,4.5,2.72.91,5.43,2.76,8.13,6.34s1.85,7.32-1.71,12.81c-4.62,1.78-4.62-1.86-1.85-8.19-3.71-4.62-6.41-2.77-10-5.48-6.4-4.57-4.55-11.84-3.69-17.3,8.18,3.63,13.67,4.55,15.52,2.69,1.71-4.49-22.78-3.55-16.38-25.48,3.63-1.8,6.27,1.78,7.19,7.32,2.77-1.85,5.49-6.4,0-10.95l-6.33-3.65c-1.85-1.84-2.71-3.69-1.85-8.19-4.5,7.27-8.13,10-16.33,4.5a22.26,22.26,0,0,1-8.18,8.26c8.18-3.71,16.38-4.57,20,1.77.92,4.57.92,7.35,0,14.61-.91,4.49-8.12,3.63-11.83.92,2.71,5.41,6.35,9.11,14.55,8.2l-1.8,8.18c2.72,5.49,3.58,13.67-1.83,15.52-8.21,3.63-1.86,6.35-10,4.57,1.78,6.33-5.48,12.68-11,9,6.41-7.26,0-13.61,4.63-14.53,8.12-2.77,15.47-.93,14.47-9.11a8.69,8.69,0,0,0-6.35-6.35c-1-7.32-3.63-12.81-9-15.52-6.34.86-11.83,5.41-11.83,10,1.79,7.27-2.7,13.61-7.27,11.84a36,36,0,0,0,.86-9.12c-.86,3.63-3.55,3.63-5.41,3.63,0-2.72,1.86-7.27,4.55-10-3.63,3.63-7.26,10-10,6.35,0-4.55,4.55-9.18,9.11-11.89l-1.77-3.56c-3.71,6.27-7.34,9.1-10.06,9.1s-4.55-1.83-4.55-5.54c2.77-9,10.9-10,13.67-18.16-3.63-24.64,9.12-19.23,28.14-27.36,4.63-1.78,5.49,5.49,9.12,8.13,7.27,7.34,10.9,3.76,10.9,0-1.78-5.41-4.55-7.27-9-5.41-5.49-.86-8.34-3.64-7.35-10,1-2.72,3.64-5.49,10-6.35.94-6.34,2.72-10,9.12-10.89,10.84-.92,20,5.48,20.8,18.23,12.75-2.77,23.65-1,28.22,10,1.85,4.42-1.78,7.19-8.13,4.42-1.9-7.27-7.34-4.42-10.9-7.27-2.84,1.86-2.84,3.71,0,5.49,3.56,1,7.2-.86,9.91,3.7,2.71.85,3.7,4.55,7.34,2.7.92,6.35-1.86,8.2-4.63,10-2.71-6.4-7.13-9.1-14.47-8.19-5.48-1.85-5.48-8.25-3.56-17.29-3.78-1.86-1.07,10.82-4.62,10.82l-5.43-.79c4.49,4.55,7.26,10,7.26,14.53,0,5.49-1,8.2-4.55,7.26l-3.7-.86c0-10.95-5.41-15.52-14.46-15.52Zm-33.62,14.61-5.49-7.27c-4.5,0-7.27,0-4.5,6.35l3.58,1.83c.92,3.58-1.78,5.43-4.55,6.35-3.57-12.75-4.49-20.93,2.77-20.93,4.49,0,10.82,10,8.19,13.67Zm1.77,4.49c.86,4.63-6.33,1-8.18,12.81,0,3.57-5.49,1.85-5.49-1.86.94-7.26,7.34-10.95,13.67-10.95Zm5.49,22.84c-3.63-3.63-2.77-5.46-.92-6.46,2.7,0,3.56,2.83,3.56,6.46,2.77.86,3.7,3.63,2.77,6.35,8.2,3.64,4.57,13.67-6.33,10-4.57,9.17-8.25,11.89-10,10.11-.86-3.71-3.57-5.49-6.29-6.42,0-1.84.81-3.69,2.72-3.69a9.91,9.91,0,0,1,4.57,5.54c1.78-1.85,1.78-2.77-2.79-5.54-.92-3.58.93-5.43,2.79-7.26,2.7,4.54,6.33,2.77,10,0,1.78,3.68,5.41,3.68,6.34.92a11,11,0,0,1-6.34-10Zm215.39-37.37c7.21,2.77,14.53-.93,16.33-7.27l.86,3.64c-.86,4.55-1.79,10.9-4.49,14.58-9.12-.91-10.9,1.8-10.9,7.27-3.63,1.85-5.56-1.84-5.56-9.1,2.85-2.79,2.85-5.49,3.76-9.12Zm-148.21,2.77c1.85,4.5,1,7.27,3.7,9,0,8.26-1.85,11-4.61,9.12-.81-5.41-2.66-7.26-11.84-7.26-2.57-3.63-3.64-9.12-4.49-13.67l.85-4.57c1.86,7.34,9.12,10,16.39,7.34Zm146.38,20c6.4-3.63,7.19-12.75,15.45-9.12,3.57,1.85,9,1.85,8.18,6.4-4.61,7.27-10,10-19.08,9.12-.92,1.72-.92,3.56,1.85,5.49,3.56,0,6.28-2.77,10-1.93,2.66,2.79,1.8,4.62,1.8,8.25-2.71,9.12-11,1.86-10,11.84-5.54-3.63-5.54-10-1-14.61-6.27-.86-12.62-12.75-7.19-15.44Zm-143.67,3.63c4.63,2.77-1.72,13.67-8.12,14.58,4.5,4.57,4.5,11-.94,15.47.94-10.9-7.19-2.77-9-12.75-1.07-3.63-1.92-5.49.79-7.27,3.63-.91,6.4,1.78,10.11.92,2.7-.92,3.51-2.69,1.71-5.46-8.19.84-14.53-1.86-19.09-8.2-.86-4.55,4.56-5.49,8.26-6.41,8.13-4.55,9.12,5.49,16.25,9.12Zm29.12-76.49c.93,8.19-.92,13.67-4.5,19.08-1.9,11.89,14.48,16.39,10,22.79-9.11,11,1.86,11.83-2.77,26.42,1.86,3.63,4.63,5.49,10,6.42,1.85,4.55,4.49,8.11,7.21,10,3.69-11-1.72-14.61-10.84-16.46a107,107,0,0,0-1.78-16.44c9.9,20.07,25.5,8.26,37.26-4.5,10,12.76,23.65,16.39,33.61,6.35.8,6.41,0,11.89-7.27,17.3v11.82c2.71-12.68,10-10,11.84-15.45,3.55-8.18-.94-12.75,3.55-20,.94-3.7-.86-6.47-4.49-7.26-.92-6.48,1.86-9.12,8.2-13.67,1.78-3.71,0-10-4.57-14.6.86-12.75-4.55-19.08-12.75-20.93-5.47-5.49-12.67-7.27-20.86-8.2-7.26-1.92-16.38-.92-26.42,1.79-9.06,2.77-17.24,8.26-25.44,15.52Zm6.42,8.19c6.33-10.9,12.73-13.67,20-12.76,9.07,2.72,19,13.62,7.22,26.43,0,12.75,21,13.61,20-.92a12.09,12.09,0,0,1-2.77-12.75c2.77-12.76,20.07-18.24,28.14-3.64-4.49-1.85-8.93-4.55-14.54-3.71-2.64.94-9.05,3.71-9.05,9.13a10.13,10.13,0,0,0,5.49,9.11c16.3,9.12,18.1-22.78,0-7.26,0-8.18,12.74-9.12,15.52-5.49,4.49,6.41-.92,14.61-8.18,15.53,8.18,5.42,12.67,10,10.76,21.79-1.8,15.54-26.36,10.05-29.94,2.79,17.38,6.4,28.14,5.41,28.14-8.2-3.56,6.4-10.76,10-25.35,6.4,10.82.86,19.94-3.76,19.08-12.81a19.31,19.31,0,0,1-15.52,7.27c4.63-1.78,8.2-4.49,8.2-8.13,0-5.54-1.79-8.26-3.57-9.11,4.42,21.79-36.4,24.58-32.83,0-10,4.56-2.71,17.24,7.4,18.23-5.49,2.71-11,.79-17.38-7.34-.86,10.05,8.2,15.47,18.24,11.89-6.35,5.43-15.52,3.58-22.73-6.4-2.77,10,14.47,18.16,25.43,8.2-5.34,9.1-17.23,7.26-24.57,2.7,1.78,4.56,3.63,8.2,8.26,7.26,1.78,1.93.92,2.79,0,4.62a19.4,19.4,0,0,1-11-10c0-2.77-3.56-7.34-2.7-11.89a21.49,21.49,0,0,1,5.41-8.13c2.77-3.69,6.35-4.55,7.34-8.26-9.12.94-13.61-2.77-16.38-8.17,11.81,7.32,20.87,8.17,22.65.91-1.78-5.48-7.26-11.81-13.61-6.4L464.7,227c9.9-14.6,17.17-11,23.57-.93,0-3.69-.92-7.27-2.7-9.1-5.42-6.35-12.82-4.57-21.79,4.55Zm-15.52-20.94-1.8,5.49,1.8,8.1-.8,10.06c0-5.43-1-8.2-4.56-8.2-4.56,1.85-6.4,7.27-9.11,16.38,4.55,3.63,4.55,9.12,9.9,9.12,2.77,3.63,7.27,7.27,10,2.77,2.71-3.69-1.84-6.4-5.47-7.32,9.1-9.11,2.7-12.75,4.6-20,1.8-5.49,5.43-8.21,9.07-10.12,2.77-4.49.91-8.12-3.64-12.75,3.64-4.49,5.49,2.85,7.27,4.63,2.7,1.85,3.63.86,2.7-1.78l-4.48-4.57c.92-5.47,12.73,13.69,17.23,1.72V182.39c-1.78-3.69-7.27-2.72-8.26,0l1,9c-1.78-4.48-5.48-9-10.9-9-3.63-1-5.48,2.71-5.48,4.56-5.47-1-9.1.92-12.67,2.7-7.27,4.49-1,14.61,3.57,11Zm91.88-21c-7.27-1-11,0-15.53,8.2-1.72,1.78-1.72,4.55-.8,7.27h5.35c.92,5.48,6.41,10,15.47,13.66a18.22,18.22,0,0,0,0,10c.92,6.35,2.77,11.76,6.33,15.47a30.48,30.48,0,0,0-.87,15.52c-1.9.86-3.68,2.64-3.68,6.34,5.48,14.54-.86,6.34-1.78,9.05-.94,7.34,0,12.75,2.77,13.74v6.33c.79,2.79,3.56,5.49,6.33,5.49,3.63-4.55-.92-7.27,0-12.81,6.35,1.85,8.2-3.58,6.35-11.76,3.63-12.75,0-19.23-4.55-24.64,5.47-5.49,5.47-10-.81-17.3L550.09,217c1.8-3.64,1.8-26.5-7.26-23.73v8.26c-4.55,0-6.46-2.77-7.26-8.26,3.63,0,6.35-.86,8.12-2.77,2.72-4.55,2.72-9.12-3.55-10.84ZM501,273.48c5.41.91,9,2.71,9,5.48,1,3.64-3.58,7.27-7.21,6.33,3.63,2.79,8.2,0,10-4.55l2.77,1.86c-7.32,13.59-25.35,10.89-24.56-.94,0-6.41,5.48-8.18,10-8.18ZM483.77,278c4.5,14.66,14.48,20.15,25.45,15.52,6.33-2.71,10.82-9.12,13.67-15.52,2.72,6.4,3.56,11.89.92,19.21C510,319,465.56,306.3,482.8,278Zm-42.72-31.85c.79.86,0,2.72.79,3.71,1.06,3.63,4.62,5.41,6.42.86,3.63,0,7.27,2.77,6.4,8.18-1.8,6.35-5.43,9.12-12.82,10l-5.34-1.84c0-4.56,3.56-4.56,3.56-5.48,1.78-3.58-9.05-11.76-2.64-18.16,1.78-1.86,4.42,0,3.63,2.69Zm.79,28.27A16.1,16.1,0,0,0,451,268c1.9,0,1.9,4.57,1.9,10,.87-1.78,2.67-3.58,3.58-6.27a16.78,16.78,0,0,1,.92,13.59c-.92,4.57-4.5,7.34-8.13,10.06-1.77-4.57-2.77-8.2-7.39-10.06-2.64-3.63-3.5-7.32,0-10.9ZM501,392.76c6.4,6.41,16.39,5.49,15.47,14.66,6.4-1,9.12,1.73,10,8.2,1,5.42-2.64,9.05-9,10,5.48,1.73,8.2,4.49,8.2,9l-2.72,5.46c0-5.46-1.91-8.17-5.48-9-12.75-4.55-10-9.11-16.39-19.08,1.78,13.67-15.45,10.83-10.82,23.65-6.43-3.7-9.19-7.34-5.62-13.68,5.62-.92,9.12-2.7,8.26-7.33-1.85-4.49,4.55-9.06,7.26-6.34l7.32,6.34,7.27,3.64c2.72,6.4,9.92,1,3.58-4.57-3.58-4.55-20-5.41-20-18.22-5.41,4.62-10,11.94-9.12,20.93-9.9,1.86-9-19.94,1.07-21.79-5.62-5.41,13.54-20.93,10.82-1.86Zm2.72-15.44c4.49,3.63,10,2.7,11.81,8.1,1.86,2.79,4.49,5.56,8.26,5.56,1.8.92,3.63,3.64,2.64,5.49-1.84,6.33-3.56,9.1-8.18,8.26l.92-8.26c0-3.71-7.19-1.85-10-5.49-5.48-7.26-7.26-15.46-5.48-13.66Zm-.94-30.07c3.63,10.05,7.21,14.54,13.69,18.23,4.49,3.58,4.49,11.84,9.12,10.9,4.47,5.49-1.8,12.83-6.42,7.34,0-7.34-5.41-8.2-11.77-9.11-3.68-.92-5.46-4.63-7.32-8.26-.93,7.34-5.48,13.67-14.53,17.37-1,2.77,0,5.49.92,9-2.72,0-6.34,0-7.26-3.55-1.91-12.83,4.54-16.39,9.9-17.38-.86,0-1.78-1.85-.86-3.58,3.71-5.48,10-8.25,15.47-6.46l-.94-14.54Zm2.72-6.4c3.7,0,7.26,1,10,0,2.72,8.25,6.28,12.75,10.9,16.45,5.43,4.49,3.63,10-.84,12.68-3.78,0-3.78-1.73-4.63-8.19,0-3.57-4.49-3.57-8.2-5.42-2.77-1.78-4.55-3.64-6.35-8.26l-.91-7.26Zm-13.54,1c6.27-1.91,10,1.77,7.19,8.12-1.78,5.49-6.33,8.26-10.9,11.83l-1.78,1.84c-1.91,1.85-.92,4.62-1.91,9.19-3.57-1.92-7.26-4.57-6.27-11.89a89,89,0,0,0,5.46-9.11,21.83,21.83,0,0,1,8.21-10Zm-47.29-47.49c3.57,6.46,8.17,7.32,12.67-.86,3.71,19.16,5.48,0,7.34,7.32l.86,2.72c4.55-.92,6.4.91,7.19,4.55l-9,6.34v6.41c-2.71,1.85-6.42.93-9.12-5.41l-1.8-5.54c-1-4.5-11-4.5-8.17-15.53Zm23.57,20.07c5.48-1.77,9.06-.86,11,2.72,5.35,2.77,17.24,7.32,20.87,1.85,3.64,3.69-9.11,9.1,3.64,10,6.27.92,5.48-5.49.92-9.12l4.56-3.63c2.78,7.26,4.56,1.78,9,3.63,5.54,1.85,2.71,10-2.72,14.53-3.55,2.85-8.13,2.85-12.75,0-10,4.62-15.45,0-19-9l-2.76,9c-8.26-9-19.08-10-12.75-20ZM522.89,319c.92-3.57,5.41-4.57,7.19-9.11,8.2,2.77.93,7.26,4.49,14.58-1.7,9.12-6.27,11-13.59,9.12,2.83-4.55.85-8.18,1.91-14.59Zm14.4-13.61-.92-3.71c.92-6.32,3.77-6.32,7.32-5.48-2.63,3.7-1.77,6.42.94,9.19.92,0,1.78.92,1.78-.94,0-3.63,0-7.26-2.72-10.95,3.71,0,1.86-2.71,1.86-5.41,1.85,0,2.64.84,4.54,2.7,4.63,4.57,4.63,17.3-.91,20-4.55,0-6.35,3.62-6.35,8.19h-6.46c2.83-6.34,0-10.91-4.49-13.61,1.91-1.85,3.69-2.77,5.41,0Zm28.2-36.47c4.49-2.7,1.85,7.28,1,11.83,1.78,4.55.86,6.41-1.85,7.34,3.63,1.78,4.56,5.41,1.85,11.81L561,310.8c-.92,13.66,4.49-1.79,6.34-6.36,2.64-2.77,4.57-.91,5.49,1.86,0,6.35-1.78,12.69-6.35,16.38,0,9.05,1.78,9.05,5.43.86,2.64-1.78,7.19,1.86,2.64,8.19l-3.5,7.33c-5.56,8.19,2.69,8.19,5.41.87.86-2.64,4.49-1.78,3.63.92,0,5.48-2.77,8.25-6.35,13.74-1.83,2.71,1.8,5.41,4.57.86l3.56-6.35c3.64,2.72,5.49,7.27,0,14.53l-4.55,8.2v11.89c-3.58,0-6.27-1.85-4.49-8.2l.91-10.95c-1.83-5.49-7.26-6.35-6.4-17.32-10-8.19,0-19.16-8.13-25.49-3.68-1.85-3.68-6.34-3.68-11.88,1.83-9.07,2.69-17.25,5.47-23.65l4.49-17.32ZM434.65,268l4.55,18.24c2.64,6.4,3.7,14.58,4.49,22.78,1,5.41,0,10-2.64,12.75-8.18,5.49,1.85,16.39-8.18,24.57.92,11-4.63,12.75-6.35,17.3l.86,11c.86,6.34-.86,8.18-5.42,8.18l.86-11.89-5.42-8.13c-4.62-7.32-3.63-10.95,0-13.67l4.56,5.49c2.66,4.49,6.28,1.78,4.56-1-3.7-5.49-6.4-8.19-7.34-13.67a2.38,2.38,0,0,1,4.63-.87c2.71,8.19,10,7.27,5.42-.91l-4.61-7.27c-3.51-6.42.91-10.05,2.76-8.2,4.55,9.05,6.41,8.2,5.49,0-3.64-4.62-5.49-10-5.49-17.3.86-2.77,2.7-3.71,5.49-.94,1.78,4.57,6.33,19.1,5.47,5.44L433.79,299c-3.71-6.35-1.86-10.06,1.77-11.83-2.69-.92-3.63-2.78-1.77-6.41v-.92c-.92-4.57-3.71-13.61.86-11.83ZM574.55,421c5.54,8.18-.81,8.18-1.72,21.87-1.78,3.69-4.57,5.41-7.34,3.69,3.7-7.33,3.7-33.75,9.06-25.56Zm-49.94-82c3.69,3.64,5.47,9.05,11,10,7.26,3.63,10.84,8.2,5.49,12.69a26.65,26.65,0,0,0-13.62-9.06c-1.83-2.77,0-6.4-5.61-8.18-.85-3.7,0-5.49,2.78-5.49Zm10,22.73,5.57,5.47c10,7.35,8.05,13.69,0,16.46,8.05,5.49,6.27,11.76-.94,17.25l4.49,7.32c3.71,5.41,0,11-5.41,13.67,7.27,7.26,7.27,10.89,1.86,12.69-.94-3.58-.94-9-7.27-10-7.26-2.71-1-7.27-4.57-16.38,2.71,0,4.57,3.7,8.07,10,4.69-3.64,2.83-7.27-3.5-11.84,1.7-10-6.42-10.95-4.57-15.45l1.78-2.77c2.79,5.47,5.49,10,8.2,9.1,1.86-2.69-1-6.33-6.4-10-2.72-3.56-2.72-9-1.8-13.59,6.29,7.26,10.06,9.1,11,3.63-7.27-3.63-11.9-9.07-6.49-15.53Zm3.71-28.21c5.41-.92,7.27,1.85,7.27,9.12-.92,2.71-2.72,3.63-4.49,2.71-6.49-2.71.86-8.12-2.78-11.83Zm9.12,27.35c.79-5.48-1.85-9.11-3.71-12.82-1.77-2.7,3.71-5.41,4.5-3.56l3.7,4.55c4.55,7.27,2.83,11.83-4.49,11.83Zm-2.77,5.42c-1.8-2.72,2.77-6.35,6.33-3.58,4.57,3.58,6.4,8.13,6.4,13.61,0,2.78-4.55,3.64-4.55.94-1.85-10.06-4.62-6.42-8.18-11Zm4.55,15.52c4.55,0,7.26,1.85,9,7.34a8.36,8.36,0,0,1-.86,8.1c0,.94-1.83.94-1.83-2.69-1.8-4.57-4.57-5.41-7.34-5.41-4.5,0-3.56-7.34,1-7.34Zm-3.63,23.7c-5.41-1.83.86-10.95,5.41-8.26,5.48,8.26,10,21,5.48,19.1-4.55-.79-4.55-9-10.89-10.84ZM547.4,421c2.69-1.78,4.49-.92,5.41,1.78a12.85,12.85,0,0,1,1.91,10l-2.83-3.63c-2.71-4.55-7.26-4.55-4.49-8.18Zm0,10.9c2.69,3.7,3.56,7.33,2.69,12.74-.91,8.26-3.68,8.26-8.17,0,3.63,2.78,7.26,1.92,4.49-4.57-1.78-4.47-2.72-6.27,1-8.17ZM560.08,421c3.63.92,7.26,2.77,6.4,7.26-1,2.77-2.77,4.55-2.77,8.18-4.5-3.63-4.5-9.09-3.63-15.44Zm-1.86,15.44c-3.5,4.57-6.33,11-.86,12.75,3.64,1.86,5.43-1.77,3.64-6.32-1.79,0-1.79-2.8-2.78-6.43ZM551,326.31c2.77.94,4.57,2.72,4.57,7.27.91,3.71,0,4.57-1.8,3.71-3.64-1.86-2.77-2.85-2.77-8.26v-2.72Zm0,16.39c1.85-2.77,3.76-2.77,6.4-1.85,3.64,3.7,4.57,8.25,3.64,13.74,3.63,2.71,6.34,6.34,5.48,11.76l-1.85,6.47,3.63,10-1.78,6.42c3.5,2.69,5.43,6.27,3.5,10.89,0,1.78-1.72,2.7-3.5,1.78,1.78-8.2-6.4-7.26-1-15.39-1.78,0-5.41-8.25-2.7-13.67-6.35-4.57,0-12.82-6.35-14.6l3.64-2.77c-3.64-2.72-10-5.49-9.12-12.75Zm15.52,71-1,3.7c0,2.72-3.56,0-4.49-2.77,1.79-4.49,0-7.21-1.79-9.06,4.5-2.77,8.13,4.57,7.27,8.13Zm-86.33-72.85c2.65,0,3.62,1.85,2.65,5.48-5.48,1.78-3.57,5.49-5.48,8.26-7.21,1.78-11.76,4.49-15.39,9-4.57-5.41-.86-9,6.33-12.81,5.48-.86,8.25-6.27,11.89-10Zm-10,22.78c5.49,6.35.86,11.89-7.27,14.61.94,6.4,5.42,4.55,11.76-3.63,1,5.41,1,10-2.64,13.6-5.48,4.55-8.18,8.26-6.4,10,2.7,1.85,5.41-2.77,9-8.2l1,2.71c2.71,4.55-5.49,5.49-3.64,15.53-7.26,4.56-9.12,8.12-3.7,11.83,2.71-6.42,4.49-10,7.34-10-2.85,8.13,3.63,13.67-3.64,16.38-7.26.87-7.26,5.42-8.18,10-5.49-1.83-6.42-5.41,1.78-12.67-5.49-3.69-10-9.18-6.35-13.67l5.49-7.34c-8.26-6.33-9.17-11.82-.92-17.38-9.12-2.63-10.92-9,0-16.36l6.33-5.43Zm-4.55-28.2c-3.63,3.63,4.55,9.12-2.72,11.82a3.09,3.09,0,0,1-4.55-2.7c-.93-7.26,1.78-11,7.27-9.12Zm-9.12,27.34c-8.18,0-10-4.55-5.48-11.95l3.7-4.49c1.78-1.78,7.27.92,5.41,3.63-2.71,3.64-5.41,7.34-3.63,12.81Zm1.85,5.48c-3.63,4.57-5.43.81-8.19,10.91,0,2.71-4.5,1.79-4.5-1.84,0-5.49,1.86-10.06,6.29-12.75,3.64-2.78,8.18.91,6.4,3.68Zm-4.56,15.47c4.56,0,6.34,7.26,1.8,7.26-3.64,0-6.3.92-8.07,5.49,0,3.63-1.86,3.63-2.77,1.78s-1-4.57-1-7.27c1.91-5.56,5.54-8.19,10-7.26Zm4.56,23.7c-7.33.87-7.33,9-11.83,10.85-5.41,1.85,0-10.85,5.43-19.1,5.47-2.7,11.89,6.4,6.4,8.25Zm-2.76,15.4c2.76,3.7-1.8,3.7-4.57,8.25l-2.7,2.77a15.51,15.51,0,0,1,1-9.17c1.73-2.71,3.63-3.63,6.3-1.85Zm0,10c3.68,2.79,2.76,4.62.91,9.06-1.78,6.41,1.85,6.41,5.49,4.69-5.49,8.12-8.2,7.2-9.07,0-1-5.55,0-9.13,2.67-13.75Zm-13.69-10c1.85,6.4,1.06,11.83-3.5,15.52,0-3.69-1.84-5.49-2.78-8.19-.91-4.49,3.64-6.34,6.28-7.33Zm2.85,15.52c3.57,4.57,6.27,10.89.91,12.75-3.76,1.85-5.54-2.77-4.55-6.41,2.64,0,2.64-2.77,3.64-6.34Zm7.2-110.25v2.79c0,5.41,1.84,6.41-2.66,8.18-1.77.87-2.77-.91-2.77-3.63,0-4.55,1.8-6.4,5.43-7.34Zm0,15.52c1,8.21-6.29,11-10.05,13.69l4.62,2.7c-6.4,1.79,0,9.06-7.26,13.69,3.7,5.47,0,14.52-2.7,14.52,6.4,8.26-2.71,6.41-.94,15.53-1.77,1-3.63,0-4.55-1.86-.93-5.41.92-8.2,4.55-10.9l-1.77-6.34,3.63-10-2.77-6.36c0-5.48,2.77-10,6.4-11.88-1-5.55,0-10,4.55-13.67,2.66-1.85,4.5-.86,6.29.91Zm-16.33,72c-.91-3.63,2.78-10.89,7.34-8.2-1.85,1.73-3.7,4.57-1.85,9,0,2.85-4.55,5.55-4.55,2.85l-.94-3.64Zm136.35,31.84c-2.72,0-3.65,1.77-1.93,5.48,3.76.86,5.56,3.64,5.56,8.18,1.78,2.72,3.56,2.72,5.41,0a4.43,4.43,0,0,0-.86-5.54c-3.63-.86-6.35-4.49-8.18-8.12Zm10,18.16s-1.78,11,9.06,11c2.78,0,3.69-.94,1.91-3.63a2.29,2.29,0,0,0-3.7,0c.93-3.64,0-6.35-2.7-7.34ZM402,473.82c3.63,4.62,6.33,10,4.47,23.7a24.67,24.67,0,0,1-.84,20.94A73.78,73.78,0,0,1,402,473.82Z"/></svg>